Linefont[max,mid].ufo
<glyph name="neg.0" format="2">
	<advance width="100"/>
	<outline>
		<contour>
			<point x="-50" y="128" type="line"/>
			<point x="50" y="128" type="line"/>
			<point x="50" y="-128" type="line"/>
			<point x="-50" y="-128" type="line"/>
		</contour>
	</outline>
</glyph>
<glyph name="neg.-1" format="2">
	<advance width="100"/>
	<outline>
		<contour>
			<point x="-37.562" y="124.38" type="line"/>
			<point x="62.438" y="114.38" type="line"/>
			<point x="37.562" y="-134.38" type="line"/>
			<point x="-62.438" y="-124.38" type="line"/>
		</contour>
	</outline>
</glyph>
<glyph name="neg.-100" format="2">
	<advance width="100"/>
	<outline>
		<contour>
			<point x="74.38" y="12.438" type="line"/>
			<point x="174.38" y="-987.562" type="line"/>
			<point x="-74.38" y="-1012.438" type="line"/>
			<point x="-174.38" y="-12.438" type="line"/>
		</contour>
	</outline>
</glyph>
<glyph name="neg.-101" format="2">
	<advance width="100"/>
	<outline>
		<contour>
			<point x="77.377" y="12.612" type="line"/>
			<point x="177.377" y="-997.388" type="line"/>
			<point x="-77.377" y="-1022.612" type="line"/>
			<point x="-177.377" y="-12.612" type="line"/>
		</contour>
	</outline>
</glyph>
<glyph name="neg.-102" format="2">
	<advance width="100"/>
	<outline>
		<contour>
			<point x="74.404" y="12.196" type="line"/>
			<point x="174.404" y="-1007.804" type="line"/>
			<point x="-74.404" y="-1032.196" type="line"/>
			<point x="-174.404" y="-12.196" type="line"/>
		</contour>
	</outline>
</glyph>
<glyph name="neg.-104" format="2">
	<advance width="100"/>
	<outline>
		<contour>
			<point x="77.412" y="12.251" type="line"/>
			<point x="177.412" y="-1027.749" type="line"/>
			<point x="-77.412" y="-1052.251" type="line"/>
			<point x="-177.412" y="-12.251" type="line"/>
		</contour>
	</outline>
</glyph>
<glyph name="neg.-105" format="2">
	<advance width="100"/>
	<outline>
		<contour>
			<point x="49.55" y="9.481" type="line"/>
			<point x="149.55" y="-1040.519" type="line"/>
			<point x="-49.55" y="-1059.481" type="line"/>
			<point x="-149.55" y="-9.481" type="line"/>
		</contour>
	</outline>
</glyph>
<glyph name="neg.-106" format="2">
	<advance width="100"/>
	<outline>
		<contour>
			<point x="77.434" y="12.022" type="line"/>
			<point x="177.434" y="-1047.978" type="line"/>
			<point x="-77.434" y="-1072.022" type="line"/>
			<point x="-177.434" y="-12.022" type="line"/>
		</contour>
	</outline>
</glyph>
<glyph name="neg.-107" format="2">
	<advance width="100"/>
	<outline>
		<contour>
			<point x="74.458" y="11.632" type="line"/>
			<point x="174.458" y="-1058.368" type="line"/>
			<point x="-74.458" y="-1081.632" type="line"/>
			<point x="-174.458" y="-11.632" type="line"/>
		</contour>
	</outline>
</glyph>
<glyph name="neg.-108" format="2">
	<advance width="100"/>
	<outline>
		<contour>
			<point x="74.468" y="11.525" type="line"/>
			<point x="174.468" y="-1068.475" type="line"/>
			<point x="-74.468" y="-1091.525" type="line"/>
			<point x="-174.468" y="-11.525" type="line"/>
		</contour>
	</outline>
</glyph>
<glyph name="neg.-109" format="2">
	<advance width="100"/>
	<outline>
		<contour>
			<point x="77.465" y="11.694" type="line"/>
			<point x="177.465" y="-1078.306" type="line"/>
			<point x="-77.465" y="-1101.694" type="line"/>
			<point x="-177.465" y="-11.694" type="line"/>
		</contour>
	</outline>
</glyph>
<glyph name="neg.-11" format="2">
	<advance width="100"/>
	<outline>
		<contour>
			<point x="42.493" y="84.084" type="line"/>
			<point x="142.493" y="-25.916" type="line"/>
			<point x="-42.493" y="-194.084" type="line"/>
			<point x="-142.493" y="-84.084" type="line"/>
		</contour>
	</outline>
</glyph>
<glyph name="neg.-110" format="2">
	<advance width="100"/>
	<outline>
		<contour>
			<point x="74.487" y="11.317" type="line"/>
			<point x="174.487" y="-1088.683" type="line"/>
			<point x="-74.487" y="-1111.317" type="line"/>
			<point x="-174.487" y="-11.317" type="line"/>
		</contour>
	</outline>
</glyph>
<glyph name="neg.-112" format="2">
	<advance width="100"/>
	<outline>
		<contour>
			<point x="74.505" y="11.116" type="line"/>
			<point x="174.505" y="-1108.884" type="line"/>
			<point x="-74.505" y="-1131.116" type="line"/>
			<point x="-174.505" y="-11.116" type="line"/>
		</contour>
	</outline>
</glyph>
<glyph name="neg.-113" format="2">
	<advance width="100"/>
	<outline>
		<contour>
			<point x="49.611" y="8.815" type="line"/>
			<point x="149.611" y="-1121.185" type="line"/>
			<point x="-49.611" y="-1138.815" type="line"/>
			<point x="-149.611" y="-8.815" type="line"/>
		</contour>
	</outline>
</glyph>
<glyph name="neg.-115" format="2">
	<advance width="100"/>
	<outline>
		<contour>
			<point x="74.53" y="10.829" type="line"/>
			<point x="174.53" y="-1139.171" type="line"/>
			<point x="-74.53" y="-1160.829" type="line"/>
			<point x="-174.53" y="-10.829" type="line"/>
		</contour>
	</outline>
</glyph>
<glyph name="neg.-116" format="2">
	<advance width="100"/>
	<outline>
		<contour>
			<point x="74.538" y="10.736" type="line"/>
			<point x="174.538" y="-1149.264" type="line"/>
			<point x="-74.538" y="-1170.736" type="line"/>
			<point x="-174.538" y="-10.736" type="line"/>
		</contour>
	</outline>
</glyph>
<glyph name="neg.-117" format="2">
	<advance width="100"/>
	<outline>
		<contour>
			<point x="77.535" y="10.9" type="line"/>
			<point x="177.535" y="-1159.1" type="line"/>
			<point x="-77.535" y="-1180.9" type="line"/>
			<point x="-177.535" y="-10.9" type="line"/>
		</contour>
	</outline>
</glyph>
<glyph name="neg.-12" format="2">
	<advance width="100"/>
	<outline>
		<contour>
			<point x="48.332" y="81.944" type="line"/>
			<point x="148.332" y="-38.056" type="line"/>
			<point x="-48.332" y="-201.944" type="line"/>
			<point x="-148.332" y="-81.944" type="line"/>
		</contour>
	</outline>
</glyph>
<glyph name="neg.-120" format="2">
	<advance width="100"/>
	<outline>
		<contour>
			<point x="77.558" y="10.63" type="line"/>
			<point x="177.558" y="-1189.37" type="line"/>
			<point x="-77.558" y="-1210.63" type="line"/>
			<point x="-177.558" y="-10.63" type="line"/>
		</contour>
	</outline>
</glyph>
<glyph name="neg.-121" format="2">
	<advance width="100"/>
	<outline>
		<contour>
			<point x="74.575" y="10.295" type="line"/>
			<point x="174.575" y="-1199.705" type="line"/>
			<point x="-74.575" y="-1220.295" type="line"/>
			<point x="-174.575" y="-10.295" type="line"/>
		</contour>
	</outline>
</glyph>
<glyph name="neg.-123" format="2">
	<advance width="100"/>
	<outline>
		<contour>
			<point x="74.589" y="10.129" type="line"/>
			<point x="174.589" y="-1219.871" type="line"/>
			<point x="-74.589" y="-1240.129" type="line"/>
			<point x="-174.589" y="-10.129" type="line"/>
		</contour>
	</outline>
</glyph>
<glyph name="neg.-124" format="2">
	<advance width="100"/>
	<outline>
		<contour>
			<point x="77.586" y="10.289" type="line"/>
			<point x="177.586" y="-1229.711" type="line"/>
			<point x="-77.586" y="-1250.289" type="line"/>
			<point x="-177.586" y="-10.289" type="line"/>
		</contour>
	</outline>
</glyph>
<glyph name="neg.-125" format="2">
	<advance width="100"/>
	<outline>
		<contour>
			<point x="74.602" y="9.968" type="line"/>
			<point x="174.602" y="-1240.032" type="line"/>
			<point x="-74.602" y="-1259.968" type="line"/>
			<point x="-174.602" y="-9.968" type="line"/>
		</contour>
	</outline>
</glyph>
<glyph name="neg.-126" format="2">
	<advance width="100"/>
	<outline>
		<contour>
			<point x="77.599" y="10.127" type="line"/>
			<point x="177.599" y="-1249.873" type="line"/>
			<point x="-77.599" y="-1270.127" type="line"/>
			<point x="-177.599" y="-10.127" type="line"/>
		</contour>
	</outline>
</glyph>
<glyph name="neg.-127" format="2">
	<advance width="100"/>
	<outline>
		<contour>
			<point x="77.605" y="10.048" type="line"/>
			<point x="177.605" y="-1259.952" type="line"/>
			<point x="-77.605" y="-1280.048" type="line"/>
			<point x="-177.605" y="-10.048" type="line"/>
		</contour>
	</outline>
</glyph>
<glyph name="neg.-13" format="2">
	<advance width="100"/>
	<outline>
		<contour>
			<point x="29.262" y="60.971" type="line"/>
			<point x="129.262" y="-69.029" type="line"/>
			<point x="-29.262" y="-190.971" type="line"/>
			<point x="-129.262" y="-60.971" type="line"/>
		</contour>
	</outline>
</glyph>
<glyph name="neg.-14" format="2">
	<advance width="100"/>
	<outline>
		<contour>
			<point x="31.373" y="58.124" type="line"/>
			<point x="131.373" y="-81.876" type="line"/>
			<point x="-31.373" y="-198.124" type="line"/>
			<point x="-131.373" y="-58.124" type="line"/>
		</contour>
	</outline>
</glyph>
<glyph name="neg.-15" format="2">
	<advance width="100"/>
	<outline>
		<contour>
			<point x="54.006" y="69.338" type="line"/>
			<point x="154.006" y="-80.662" type="line"/>
			<point x="-54.006" y="-219.338" type="line"/>
			<point x="-154.006" y="-69.338" type="line"/>
		</contour>
	</outline>
</glyph>
<glyph name="neg.-16" format="2">
	<advance width="100"/>
	<outline>
		<contour>
			<point x="55" y="66.25" type="line"/>
			<point x="155" y="-93.75" type="line"/>
			<point x="-55" y="-226.25" type="line"/>
			<point x="-155" y="-66.25" type="line"/>
		</contour>
	</outline>
</glyph>
<glyph name="neg.-17" format="2">
	<advance width="100"/>
	<outline>
		<contour>
			<point x="60.328" y="64.899" type="line"/>
			<point x="160.328" y="-105.101" type="line"/>
			<point x="-60.328" y="-234.899" type="line"/>
			<point x="-160.328" y="-64.899" type="line"/>
		</contour>
	</outline>
</glyph>
<glyph name="neg.-18" format="2">
	<advance width="100"/>
	<outline>
		<contour>
			<point x="37.416" y="48.564" type="line"/>
			<point x="137.416" y="-131.436" type="line"/>
			<point x="-37.416" y="-228.564" type="line"/>
			<point x="-137.416" y="-48.564" type="line"/>
		</contour>
	</outline>
</glyph>
<glyph name="neg.-19" format="2">
	<advance width="100"/>
	<outline>
		<contour>
			<point x="63.27" y="59.616" type="line"/>
			<point x="163.27" y="-130.384" type="line"/>
			<point x="-63.27" y="-249.616" type="line"/>
			<point x="-163.27" y="-59.616" type="line"/>
		</contour>
	</outline>
</glyph>
<glyph name="neg.-2" format="2">
	<advance width="100"/>
	<outline>
		<contour>
			<point x="-24.897" y="125.514" type="line"/>
			<point x="75.103" y="105.514" type="line"/>
			<point x="24.897" y="-145.514" type="line"/>
			<point x="-75.103" y="-125.514" type="line"/>
		</contour>
	</outline>
</glyph>
<glyph name="neg.-20" format="2">
	<advance width="100"/>
	<outline>
		<contour>
			<point x="61.803" y="55.902" type="line"/>
			<point x="161.803" y="-144.098" type="line"/>
			<point x="-61.803" y="-255.902" type="line"/>
			<point x="-161.803" y="-55.902" type="line"/>
		</contour>
	</outline>
</glyph>
<glyph name="neg.-24" format="2">
	<advance width="100"/>
	<outline>
		<contour>
			<point x="65.385" y="48.077" type="line"/>
			<point x="165.385" y="-191.923" type="line"/>
			<point x="-65.385" y="-288.077" type="line"/>
			<point x="-165.385" y="-48.077" type="line"/>
		</contour>
	</outline>
</glyph>
<glyph name="neg.-26" format="2">
	<advance width="100"/>
	<outline>
		<contour>
			<point x="69.468" y="45.949" type="line"/>
			<point x="169.468" y="-214.051" type="line"/>
			<point x="-69.468" y="-305.949" type="line"/>
			<point x="-169.468" y="-45.949" type="line"/>
		</contour>
	</outline>
</glyph>
<glyph name="neg.-27" format="2">
	<advance width="100"/>
	<outline>
		<contour>
			<point x="67.219" y="43.414" type="line"/>
			<point x="167.219" y="-226.586" type="line"/>
			<point x="-67.219" y="-313.414" type="line"/>
			<point x="-167.219" y="-43.414" type="line"/>
		</contour>
	</outline>
</glyph>
<glyph name="neg.-28" format="2">
	<advance width="100"/>
	<outline>
		<contour>
			<point x="67.718" y="42.042" type="line"/>
			<point x="167.718" y="-237.958" type="line"/>
			<point x="-67.718" y="-322.042" type="line"/>
			<point x="-167.718" y="-42.042" type="line"/>
		</contour>
	</outline>
</glyph>
<glyph name="neg.-29" format="2">
	<advance width="100"/>
	<outline>
		<contour>
			<point x="71.008" y="41.727" type="line"/>
			<point x="171.008" y="-248.273" type="line"/>
			<point x="-71.008" y="-331.727" type="line"/>
			<point x="-171.008" y="-41.727" type="line"/>
		</contour>
	</outline>
</glyph>
<glyph name="neg.-3" format="2">
	<advance width="100"/>
	<outline>
		<contour>
			<point x="-14.082" y="119.728" type="line"/>
			<point x="85.918" y="89.728" type="line"/>
			<point x="14.082" y="-149.728" type="line"/>
			<point x="-85.918" y="-119.728" type="line"/>
		</contour>
	</outline>
</glyph>
<glyph name="neg.-30" format="2">
	<advance width="100"/>
	<outline>
		<contour>
			<point x="68.585" y="39.528" type="line"/>
			<point x="168.585" y="-260.472" type="line"/>
			<point x="-68.585" y="-339.528" type="line"/>
			<point x="-168.585" y="-39.528" type="line"/>
		</contour>
	</outline>
</glyph>
<glyph name="neg.-31" format="2">
	<advance width="100"/>
	<outline>
		<contour>
			<point x="71.819" y="39.296" type="line"/>
			<point x="171.819" y="-270.704" type="line"/>
			<point x="-71.819" y="-349.296" type="line"/>
			<point x="-171.819" y="-39.296" type="line"/>
		</contour>
	</outline>
</glyph>
<glyph name="neg.-32" format="2">
	<advance width="100"/>
	<outline>
		<contour>
			<point x="72.173" y="38.179" type="line"/>
			<point x="172.173" y="-281.821" type="line"/>
			<point x="-72.173" y="-358.179" type="line"/>
			<point x="-172.173" y="-38.179" type="line"/>
		</contour>
	</outline>
</glyph>
<glyph name="neg.-33" format="2">
	<advance width="100"/>
	<outline>
		<contour>
			<point x="69.628" y="36.251" type="line"/>
			<point x="169.628" y="-293.749" type="line"/>
			<point x="-69.628" y="-366.251" type="line"/>
			<point x="-169.628" y="-36.251" type="line"/>
		</contour>
	</outline>
</glyph>
<glyph name="neg.-34" format="2">
	<advance width="100"/>
	<outline>
		<contour>
			<point x="72.799" y="36.117" type="line"/>
			<point x="172.799" y="-303.883" type="line"/>
			<point x="-72.799" y="-376.117" type="line"/>
			<point x="-172.799" y="-36.117" type="line"/>
		</contour>
	</outline>
</glyph>
<glyph name="neg.-35" format="2">
	<advance width="100"/>
	<outline>
		<contour>
			<point x="46.152" y="27.472" type="line"/>
			<point x="146.152" y="-322.528" type="line"/>
			<point x="-46.152" y="-377.472" type="line"/>
			<point x="-146.152" y="-27.472" type="line"/>
		</contour>
	</outline>
</glyph>
<glyph name="neg.-36" format="2">
	<advance width="100"/>
	<outline>
		<contour>
			<point x="73.33" y="34.258" type="line"/>
			<point x="173.33" y="-325.742" type="line"/>
			<point x="-73.33" y="-394.258" type="line"/>
			<point x="-173.33" y="-34.258" type="line"/>
		</contour>
	</outline>
</glyph>
<glyph name="neg.-37" format="2">
	<advance width="100"/>
	<outline>
		<contour>
			<point x="70.67" y="32.614" type="line"/>
			<point x="170.67" y="-337.386" type="line"/>
			<point x="-70.67" y="-402.614" type="line"/>
			<point x="-170.67" y="-32.614" type="line"/>
		</contour>
	</outline>
</glyph>
<glyph name="neg.-38" format="2">
	<advance width="100"/>
	<outline>
		<contour>
			<point x="70.884" y="31.812" type="line"/>
			<point x="170.884" y="-348.188" type="line"/>
			<point x="-70.884" y="-411.812" type="line"/>
			<point x="-170.884" y="-31.812" type="line"/>
		</contour>
	</outline>
</glyph>
<glyph name="neg.-39" format="2">
	<advance width="100"/>
	<outline>
		<contour>
			<point x="73.989" y="31.792" type="line"/>
			<point x="173.989" y="-358.208" type="line"/>
			<point x="-73.989" y="-421.792" type="line"/>
			<point x="-173.989" y="-31.792" type="line"/>
		</contour>
	</outline>
</glyph>
<glyph name="neg.-40" format="2">
	<advance width="100"/>
	<outline>
		<contour>
			<point x="71.268" y="30.317" type="line"/>
			<point x="171.268" y="-369.683" type="line"/>
			<point x="-71.268" y="-430.317" type="line"/>
			<point x="-171.268" y="-30.317" type="line"/>
		</contour>
	</outline>
</glyph>
<glyph name="neg.-41" format="2">
	<advance width="100"/>
	<outline>
		<contour>
			<point x="71.44" y="29.62" type="line"/>
			<point x="171.44" y="-380.38" type="line"/>
			<point x="-71.44" y="-439.62" type="line"/>
			<point x="-171.44" y="-29.62" type="line"/>
		</contour>
	</outline>
</glyph>
<glyph name="neg.-42" format="2">
	<advance width="100"/>
	<outline>
		<contour>
			<point x="71.601" y="28.953" type="line"/>
			<point x="171.601" y="-391.047" type="line"/>
			<point x="-71.601" y="-448.953" type="line"/>
			<point x="-171.601" y="-28.953" type="line"/>
		</contour>
	</outline>
</glyph>
<glyph name="neg.-43" format="2">
	<advance width="100"/>
	<outline>
		<contour>
			<point x="74.673" y="28.994" type="line"/>
			<point x="174.673" y="-401.006" type="line"/>
			<point x="-74.673" y="-458.994" type="line"/>
			<point x="-174.673" y="-28.994" type="line"/>
		</contour>
	</outline>
</glyph>
<glyph name="neg.-45" format="2">
	<advance width="100"/>
	<outline>
		<contour>
			<point x="72.023" y="27.116" type="line"/>
			<point x="172.023" y="-422.884" type="line"/>
			<point x="-72.023" y="-477.116" type="line"/>
			<point x="-172.023" y="-27.116" type="line"/>
		</contour>
	</outline>
</glyph>
<glyph name="neg.-46" format="2">
	<advance width="100"/>
	<outline>
		<contour>
			<point x="75.079" y="27.191" type="line"/>
			<point x="175.079" y="-432.809" type="line"/>
			<point x="-75.079" y="-487.191" type="line"/>
			<point x="-175.079" y="-27.191" type="line"/>
		</contour>
	</outline>
</glyph>
<glyph name="neg.-48" format="2">
	<advance width="100"/>
	<outline>
		<contour>
			<point x="47.898" y="20.395" type="line"/>
			<point x="147.898" y="-459.605" type="line"/>
			<point x="-47.898" y="-500.395" type="line"/>
			<point x="-147.898" y="-20.395" type="line"/>
		</contour>
	</outline>
</glyph>
<glyph name="neg.-49" format="2">
	<advance width="100"/>
	<outline>
		<contour>
			<point x="75.415" y="25.595" type="line"/>
			<point x="175.415" y="-464.405" type="line"/>
			<point x="-75.415" y="-515.595" type="line"/>
			<point x="-175.415" y="-25.595" type="line"/>
		</contour>
	</outline>
</glyph>
<glyph name="neg.-5" format="2">
	<advance width="100"/>
	<outline>
		<contour>
			<point x="7.243" y="114.487" type="line"/>
			<point x="107.243" y="64.487" type="line"/>
			<point x="-7.243" y="-164.487" type="line"/>
			<point x="-107.243" y="-114.487" type="line"/>
		</contour>
	</outline>
</glyph>
<glyph name="neg.-50" format="2">
	<advance width="100"/>
	<outline>
		<contour>
			<point x="75.514" y="25.103" type="line"/>
			<point x="175.514" y="-474.897" type="line"/>
			<point x="-75.514" y="-525.103" type="line"/>
			<point x="-175.514" y="-25.103" type="line"/>
		</contour>
	</outline>
</glyph>
<glyph name="neg.-51" format="2">
	<advance width="100"/>
	<outline>
		<contour>
			<point x="48.131" y="19.241" type="line"/>
			<point x="148.131" y="-490.759" type="line"/>
			<point x="-48.131" y="-529.241" type="line"/>
			<point x="-148.131" y="-19.241" type="line"/>
		</contour>
	</outline>
</glyph>
<glyph name="neg.-52" format="2">
	<advance width="100"/>
	<outline>
		<contour>
			<point x="48.201" y="18.885" type="line"/>
			<point x="148.201" y="-501.115" type="line"/>
			<point x="-48.201" y="-538.885" type="line"/>
			<point x="-148.201" y="-18.885" type="line"/>
		</contour>
	</outline>
</glyph>
<glyph name="neg.-53" format="2">
	<advance width="100"/>
	<outline>
		<contour>
			<point x="72.833" y="23.176" type="line"/>
			<point x="172.833" y="-506.824" type="line"/>
			<point x="-72.833" y="-553.176" type="line"/>
			<point x="-172.833" y="-23.176" type="line"/>
		</contour>
	</outline>
</glyph>
<glyph name="neg.-55" format="2">
	<advance width="100"/>
	<outline>
		<contour>
			<point x="72.984" y="22.361" type="line"/>
			<point x="172.984" y="-527.639" type="line"/>
			<point x="-72.984" y="-572.361" type="line"/>
			<point x="-172.984" y="-22.361" type="line"/>
		</contour>
	</outline>
</glyph>
<glyph name="neg.-56" format="2">
	<advance width="100"/>
	<outline>
		<contour>
			<point x="76.007" y="22.501" type="line"/>
			<point x="176.007" y="-537.499" type="line"/>
			<point x="-76.007" y="-582.501" type="line"/>
			<point x="-176.007" y="-22.501" type="line"/>
		</contour>
	</outline>
</glyph>
<glyph name="neg.-57" format="2">
	<advance width="100"/>
	<outline>
		<contour>
			<point x="73.12" y="21.6" type="line"/>
			<point x="173.12" y="-548.4" type="line"/>
			<point x="-73.12" y="-591.6" type="line"/>
			<point x="-173.12" y="-21.6" type="line"/>
		</contour>
	</outline>
</glyph>
<glyph name="neg.-58" format="2">
	<advance width="100"/>
	<outline>
		<contour>
			<point x="73.183" y="21.238" type="line"/>
			<point x="173.183" y="-558.762" type="line"/>
			<point x="-73.183" y="-601.238" type="line"/>
			<point x="-173.183" y="-21.238" type="line"/>
		</contour>
	</outline>
</glyph>
<glyph name="neg.-59" format="2">
	<advance width="100"/>
	<outline>
		<contour>
			<point x="76.2" y="21.39" type="line"/>
			<point x="176.2" y="-568.61" type="line"/>
			<point x="-76.2" y="-611.39" type="line"/>
			<point x="-176.2" y="-21.39" type="line"/>
		</contour>
	</outline>
</glyph>
<glyph name="neg.-6" format="2">
	<advance width="100"/>
	<outline>
		<contour>
			<point x="15.855" y="109.759" type="line"/>
			<point x="115.855" y="49.759" type="line"/>
			<point x="-15.855" y="-169.759" type="line"/>
			<point x="-115.855" y="-109.759" type="line"/>
		</contour>
	</outline>
</glyph>
<glyph name="neg.-60" format="2">
	<advance width="100"/>
	<outline>
		<contour>
			<point x="73.299" y="20.55" type="line"/>
			<point x="173.299" y="-579.45" type="line"/>
			<point x="-73.299" y="-620.55" type="line"/>
			<point x="-173.299" y="-20.55" type="line"/>
		</contour>
	</outline>
</glyph>
<glyph name="neg.-61" format="2">
	<advance width="100"/>
	<outline>
		<contour>
			<point x="76.314" y="20.707" type="line"/>
			<point x="176.314" y="-589.293" type="line"/>
			<point x="-76.314" y="-630.707" type="line"/>
			<point x="-176.314" y="-20.707" type="line"/>
		</contour>
	</outline>
</glyph>
<glyph name="neg.-62" format="2">
	<advance width="100"/>
	<outline>
		<contour>
			<point x="73.405" y="19.904" type="line"/>
			<point x="173.405" y="-600.096" type="line"/>
			<point x="-73.405" y="-639.904" type="line"/>
			<point x="-173.405" y="-19.904" type="line"/>
		</contour>
	</outline>
</glyph>
<glyph name="neg.-64" format="2">
	<advance width="100"/>
	<outline>
		<contour>
			<point x="73.502" y="19.297" type="line"/>
			<point x="173.502" y="-620.703" type="line"/>
			<point x="-73.502" y="-659.297" type="line"/>
			<point x="-173.502" y="-19.297" type="line"/>
		</contour>
	</outline>
</glyph>
<glyph name="neg.-65" format="2">
	<advance width="100"/>
	<outline>
		<contour>
			<point x="73.546" y="19.007" type="line"/>
			<point x="173.546" y="-630.993" type="line"/>
			<point x="-73.546" y="-669.007" type="line"/>
			<point x="-173.546" y="-19.007" type="line"/>
		</contour>
	</outline>
</glyph>
<glyph name="neg.-66" format="2">
	<advance width="100"/>
	<outline>
		<contour>
			<point x="76.556" y="19.175" type="line"/>
			<point x="176.556" y="-640.825" type="line"/>
			<point x="-76.556" y="-679.175" type="line"/>
			<point x="-176.556" y="-19.175" type="line"/>
		</contour>
	</outline>
</glyph>
<glyph name="neg.-67" format="2">
	<advance width="100"/>
	<outline>
		<contour>
			<point x="73.631" y="18.452" type="line"/>
			<point x="173.631" y="-651.548" type="line"/>
			<point x="-73.631" y="-688.452" type="line"/>
			<point x="-173.631" y="-18.452" type="line"/>
		</contour>
	</outline>
</glyph>
<glyph name="neg.-69" format="2">
	<advance width="100"/>
	<outline>
		<contour>
			<point x="76.677" y="18.359" type="line"/>
			<point x="176.677" y="-671.641" type="line"/>
			<point x="-76.677" y="-708.359" type="line"/>
			<point x="-176.677" y="-18.359" type="line"/>
		</contour>
	</outline>
</glyph>
<glyph name="neg.-70" format="2">
	<advance width="100"/>
	<outline>
		<contour>
			<point x="48.995" y="14.142" type="line"/>
			<point x="148.995" y="-685.858" type="line"/>
			<point x="-48.995" y="-714.142" type="line"/>
			<point x="-148.995" y="-14.142" type="line"/>
		</contour>
	</outline>
</glyph>
<glyph name="neg.-71" format="2">
	<advance width="100"/>
	<outline>
		<contour>
			<point x="76.749" y="17.852" type="line"/>
			<point x="176.749" y="-692.148" type="line"/>
			<point x="-76.749" y="-727.852" type="line"/>
			<point x="-176.749" y="-17.852" type="line"/>
		</contour>
	</outline>
</glyph>
<glyph name="neg.-72" format="2">
	<advance width="100"/>
	<outline>
		<contour>
			<point x="76.783" y="17.609" type="line"/>
			<point x="176.783" y="-702.391" type="line"/>
			<point x="-76.783" y="-737.609" type="line"/>
			<point x="-176.783" y="-17.609" type="line"/>
		</contour>
	</outline>
</glyph>
<glyph name="neg.-73" format="2">
	<advance width="100"/>
	<outline>
		<contour>
			<point x="76.816" y="17.372" type="line"/>
			<point x="176.816" y="-712.628" type="line"/>
			<point x="-76.816" y="-747.372" type="line"/>
			<point x="-176.816" y="-17.372" type="line"/>
		</contour>
	</outline>
</glyph>
<glyph name="neg.-74" format="2">
	<advance width="100"/>
	<outline>
		<contour>
			<point x="73.874" y="16.74" type="line"/>
			<point x="173.874" y="-723.26" type="line"/>
			<point x="-73.874" y="-756.74" type="line"/>
			<point x="-173.874" y="-16.74" type="line"/>
		</contour>
	</outline>
</glyph>
<glyph name="neg.-75" format="2">
	<advance width="100"/>
	<outline>
		<contour>
			<point x="73.903" y="16.52" type="line"/>
			<point x="173.903" y="-733.48" type="line"/>
			<point x="-73.903" y="-766.52" type="line"/>
			<point x="-173.903" y="-16.52" type="line"/>
		</contour>
	</outline>
</glyph>
<glyph name="neg.-76" format="2">
	<advance width="100"/>
	<outline>
		<contour>
			<point x="49.145" y="13.045" type="line"/>
			<point x="149.145" y="-746.955" type="line"/>
			<point x="-49.145" y="-773.045" type="line"/>
			<point x="-149.145" y="-13.045" type="line"/>
		</contour>
	</outline>
</glyph>
<glyph name="neg.-79" format="2">
	<advance width="100"/>
	<outline>
		<contour>
			<point x="49.208" y="12.558" type="line"/>
			<point x="149.208" y="-777.442" type="line"/>
			<point x="-49.208" y="-802.558" type="line"/>
			<point x="-149.208" y="-12.558" type="line"/>
		</contour>
	</outline>
</glyph>
<glyph name="neg.-8" format="2">
	<advance width="100"/>
	<outline>
		<contour>
			<point x="28.087" y="97.609" type="line"/>
			<point x="128.087" y="17.609" type="line"/>
			<point x="-28.087" y="-177.609" type="line"/>
			<point x="-128.087" y="-97.609" type="line"/>
		</contour>
	</outline>
</glyph>
<glyph name="neg.-80" format="2">
	<advance width="100"/>
	<outline>
		<contour>
			<point x="49.228" y="12.403" type="line"/>
			<point x="149.228" y="-787.597" type="line"/>
			<point x="-49.228" y="-812.403" type="line"/>
			<point x="-149.228" y="-12.403" type="line"/>
		</contour>
	</outline>
</glyph>
<glyph name="neg.-82" format="2">
	<advance width="100"/>
	<outline>
		<contour>
			<point x="74.081" y="15.132" type="line"/>
			<point x="174.081" y="-804.868" type="line"/>
			<point x="-74.081" y="-835.132" type="line"/>
			<point x="-174.081" y="-15.132" type="line"/>
		</contour>
	</outline>
</glyph>
<glyph name="neg.-83" format="2">
	<advance width="100"/>
	<outline>
		<contour>
			<point x="74.103" y="14.952" type="line"/>
			<point x="174.103" y="-815.048" type="line"/>
			<point x="-74.103" y="-844.952" type="line"/>
			<point x="-174.103" y="-14.952" type="line"/>
		</contour>
	</outline>
</glyph>
<glyph name="neg.-84" format="2">
	<advance width="100"/>
	<outline>
		<contour>
			<point x="74.124" y="14.777" type="line"/>
			<point x="174.124" y="-825.223" type="line"/>
			<point x="-74.124" y="-854.777" type="line"/>
			<point x="-174.124" y="-14.777" type="line"/>
		</contour>
	</outline>
</glyph>
<glyph name="neg.-88" format="2">
	<advance width="100"/>
	<outline>
		<contour>
			<point x="49.361" y="11.291" type="line"/>
			<point x="149.361" y="-868.709" type="line"/>
			<point x="-49.361" y="-891.291" type="line"/>
			<point x="-149.361" y="-11.291" type="line"/>
		</contour>
	</outline>
</glyph>
<glyph name="neg.-89" format="2">
	<advance width="100"/>
	<outline>
		<contour>
			<point x="74.218" y="13.957" type="line"/>
			<point x="174.218" y="-876.043" type="line"/>
			<point x="-74.218" y="-903.957" type="line"/>
			<point x="-174.218" y="-13.957" type="line"/>
		</contour>
	</outline>
</glyph>
<glyph name="neg.-9" format="2">
	<advance width="100"/>
	<outline>
		<contour>
			<point x="35.627" y="95.142" type="line"/>
			<point x="135.627" y="5.142" type="line"/>
			<point x="-35.627" y="-185.142" type="line"/>
			<point x="-135.627" y="-95.142" type="line"/>
		</contour>
	</outline>
</glyph>
<glyph name="neg.-90" format="2">
	<advance width="100"/>
	<outline>
		<contour>
			<point x="49.388" y="11.043" type="line"/>
			<point x="149.388" y="-888.957" type="line"/>
			<point x="-49.388" y="-911.043" type="line"/>
			<point x="-149.388" y="-11.043" type="line"/>
		</contour>
	</outline>
</glyph>
<glyph name="neg.-91" format="2">
	<advance width="100"/>
	<outline>
		<contour>
			<point x="74.252" y="13.654" type="line"/>
			<point x="174.252" y="-896.346" type="line"/>
			<point x="-74.252" y="-923.654" type="line"/>
			<point x="-174.252" y="-13.654" type="line"/>
		</contour>
	</outline>
</glyph>
<glyph name="neg.-92" format="2">
	<advance width="100"/>
	<outline>
		<contour>
			<point x="74.268" y="13.507" type="line"/>
			<point x="174.268" y="-906.493" type="line"/>
			<point x="-74.268" y="-933.507" type="line"/>
			<point x="-174.268" y="-13.507" type="line"/>
		</contour>
	</outline>
</glyph>
<glyph name="neg.-93" format="2">
	<advance width="100"/>
	<outline>
		<contour>
			<point x="77.266" y="13.685" type="line"/>
			<point x="177.266" y="-916.315" type="line"/>
			<point x="-77.266" y="-943.685" type="line"/>
			<point x="-177.266" y="-13.685" type="line"/>
		</contour>
	</outline>
</glyph>
<glyph name="neg.-94" format="2">
	<advance width="100"/>
	<outline>
		<contour>
			<point x="77.282" y="13.541" type="line"/>
			<point x="177.282" y="-926.459" type="line"/>
			<point x="-77.282" y="-953.541" type="line"/>
			<point x="-177.282" y="-13.541" type="line"/>
		</contour>
	</outline>
</glyph>
<glyph name="neg.-95" format="2">
	<advance width="100"/>
	<outline>
		<contour>
			<point x="74.313" y="13.086" type="line"/>
			<point x="174.313" y="-936.914" type="line"/>
			<point x="-74.313" y="-963.086" type="line"/>
			<point x="-174.313" y="-13.086" type="line"/>
		</contour>
	</outline>
</glyph>
<glyph name="neg.-96" format="2">
	<advance width="100"/>
	<outline>
		<contour>
			<point x="49.462" y="10.361" type="line"/>
			<point x="149.462" y="-949.639" type="line"/>
			<point x="-49.462" y="-970.361" type="line"/>
			<point x="-149.462" y="-10.361" type="line"/>
		</contour>
	</outline>
</glyph>
<glyph name="neg.-97" format="2">
	<advance width="100"/>
	<outline>
		<contour>
			<point x="77.325" y="13.126" type="line"/>
			<point x="177.325" y="-956.874" type="line"/>
			<point x="-77.325" y="-983.126" type="line"/>
			<point x="-177.325" y="-13.126" type="line"/>
		</contour>
	</outline>
</glyph>
<glyph name="neg.-98" format="2">
	<advance width="100"/>
	<outline>
		<contour>
			<point x="77.339" y="12.994" type="line"/>
			<point x="177.339" y="-967.006" type="line"/>
			<point x="-77.339" y="-992.994" type="line"/>
			<point x="-177.339" y="-12.994" type="line"/>
		</contour>
	</outline>
</glyph>
<glyph name="neg.-99" format="2">
	<advance width="100"/>
	<outline>
		<contour>
			<point x="74.367" y="12.562" type="line"/>
			<point x="174.367" y="-977.438" type="line"/>
			<point x="-74.367" y="-1002.562" type="line"/>
			<point x="-174.367" y="-12.562" type="line"/>
		</contour>
	</outline>
</glyph>
<glyph name="pos.1" format="2">
	<advance width="100"/>
	<outline>
		<contour>
			<point x="-62.736" y="127.365" type="line"/>
			<point x="37.264" y="137.365" type="line"/>
			<point x="62.736" y="-117.365" type="line"/>
			<point x="-37.264" y="-127.365" type="line"/>
		</contour>
	</outline>
</glyph>
<glyph name="pos.10" format="2">
	<advance width="100"/>
	<outline>
		<contour>
			<point x="-138.388" y="88.388" type="line"/>
			<point x="-38.388" y="188.388" type="line"/>
			<point x="138.388" y="11.612" type="line"/>
			<point x="38.388" y="-88.388" type="line"/>
		</contour>
	</outline>
</glyph>
<glyph name="pos.100" format="2">
	<advance width="100"/>
	<outline>
		<contour>
			<point x="-177.365" y="12.736" type="line"/>
			<point x="-77.365" y="1012.736" type="line"/>
			<point x="177.365" y="987.264" type="line"/>
			<point x="77.365" y="-12.736" type="line"/>
		</contour>
	</outline>
</glyph>
<glyph name="pos.101" format="2">
	<advance width="100"/>
	<outline>
		<contour>
			<point x="-174.392" y="12.316" type="line"/>
			<point x="-74.392" y="1022.316" type="line"/>
			<point x="174.392" y="997.684" type="line"/>
			<point x="74.392" y="-12.316" type="line"/>
		</contour>
	</outline>
</glyph>
<glyph name="pos.102" format="2">
	<advance width="100"/>
	<outline>
		<contour>
			<point x="-177.389" y="12.489" type="line"/>
			<point x="-77.389" y="1032.489" type="line"/>
			<point x="177.389" y="1007.511" type="line"/>
			<point x="77.389" y="-12.489" type="line"/>
		</contour>
	</outline>
</glyph>
<glyph name="pos.103" format="2">
	<advance width="100"/>
	<outline>
		<contour>
			<point x="-174.415" y="12.079" type="line"/>
			<point x="-74.415" y="1042.079" type="line"/>
			<point x="174.415" y="1017.921" type="line"/>
			<point x="74.415" y="-12.079" type="line"/>
		</contour>
	</outline>
</glyph>
<glyph name="pos.104" format="2">
	<advance width="100"/>
	<outline>
		<contour>
			<point x="-174.426" y="11.964" type="line"/>
			<point x="-74.426" y="1051.964" type="line"/>
			<point x="174.426" y="1028.036" type="line"/>
			<point x="74.426" y="-11.964" type="line"/>
		</contour>
	</outline>
</glyph>
<glyph name="pos.105" format="2">
	<advance width="100"/>
	<outline>
		<contour>
			<point x="-177.423" y="12.136" type="line"/>
			<point x="-77.423" y="1062.136" type="line"/>
			<point x="177.423" y="1037.864" type="line"/>
			<point x="77.423" y="-12.136" type="line"/>
		</contour>
	</outline>
</glyph>
<glyph name="pos.106" format="2">
	<advance width="100"/>
	<outline>
		<contour>
			<point x="-174.447" y="11.74" type="line"/>
			<point x="-74.447" y="1071.74" type="line"/>
			<point x="174.447" y="1048.26" type="line"/>
			<point x="74.447" y="-11.74" type="line"/>
		</contour>
	</outline>
</glyph>
<glyph name="pos.108" format="2">
	<advance width="100"/>
	<outline>
		<contour>
			<point x="-177.455" y="11.801" type="line"/>
			<point x="-77.455" y="1091.801" type="line"/>
			<point x="177.455" y="1068.199" type="line"/>
			<point x="77.455" y="-11.801" type="line"/>
		</contour>
	</outline>
</glyph>
<glyph name="pos.109" format="2">
	<advance width="100"/>
	<outline>
		<contour>
			<point x="-174.477" y="11.42" type="line"/>
			<point x="-74.477" y="1101.42" type="line"/>
			<point x="174.477" y="1078.58" type="line"/>
			<point x="74.477" y="-11.42" type="line"/>
		</contour>
	</outline>
</glyph>
<glyph name="pos.11" format="2">
	<advance width="100"/>
	<outline>
		<contour>
			<point x="-144.712" y="86.102" type="line"/>
			<point x="-44.712" y="196.102" type="line"/>
			<point x="144.712" y="23.898" type="line"/>
			<point x="44.712" y="-86.102" type="line"/>
		</contour>
	</outline>
</glyph>
<glyph name="pos.110" format="2">
	<advance width="100"/>
	<outline>
		<contour>
			<point x="-177.474" y="11.589" type="line"/>
			<point x="-77.474" y="1111.589" type="line"/>
			<point x="177.474" y="1088.411" type="line"/>
			<point x="77.474" y="-11.589" type="line"/>
		</contour>
	</outline>
</glyph>
<glyph name="pos.111" format="2">
	<advance width="100"/>
	<outline>
		<contour>
			<point x="-174.496" y="11.216" type="line"/>
			<point x="-74.496" y="1121.216" type="line"/>
			<point x="174.496" y="1098.784" type="line"/>
			<point x="74.496" y="-11.216" type="line"/>
		</contour>
	</outline>
</glyph>
<glyph name="pos.112" format="2">
	<advance width="100"/>
	<outline>
		<contour>
			<point x="-177.493" y="11.383" type="line"/>
			<point x="-77.493" y="1131.383" type="line"/>
			<point x="177.493" y="1108.617" type="line"/>
			<point x="77.493" y="-11.383" type="line"/>
		</contour>
	</outline>
</glyph>
<glyph name="pos.113" format="2">
	<advance width="100"/>
	<outline>
		<contour>
			<point x="-177.502" y="11.283" type="line"/>
			<point x="-77.502" y="1141.283" type="line"/>
			<point x="177.502" y="1118.717" type="line"/>
			<point x="77.502" y="-11.283" type="line"/>
		</contour>
	</outline>
</glyph>
<glyph name="pos.114" format="2">
	<advance width="100"/>
	<outline>
		<contour>
			<point x="-174.522" y="10.923" type="line"/>
			<point x="-74.522" y="1150.923" type="line"/>
			<point x="174.522" y="1129.077" type="line"/>
			<point x="74.522" y="-10.923" type="line"/>
		</contour>
	</outline>
</glyph>
<glyph name="pos.115" format="2">
	<advance width="100"/>
	<outline>
		<contour>
			<point x="-177.519" y="11.089" type="line"/>
			<point x="-77.519" y="1161.089" type="line"/>
			<point x="177.519" y="1138.911" type="line"/>
			<point x="77.519" y="-11.089" type="line"/>
		</contour>
	</outline>
</glyph>
<glyph name="pos.116" format="2">
	<advance width="100"/>
	<outline>
		<contour>
			<point x="-177.527" y="10.994" type="line"/>
			<point x="-77.527" y="1170.994" type="line"/>
			<point x="177.527" y="1149.006" type="line"/>
			<point x="77.527" y="-10.994" type="line"/>
		</contour>
	</outline>
</glyph>
<glyph name="pos.117" format="2">
	<advance width="100"/>
	<outline>
		<contour>
			<point x="-174.546" y="10.645" type="line"/>
			<point x="-74.546" y="1180.645" type="line"/>
			<point x="174.546" y="1159.355" type="line"/>
			<point x="74.546" y="-10.645" type="line"/>
		</contour>
	</outline>
</glyph>
<glyph name="pos.118" format="2">
	<advance width="100"/>
	<outline>
		<contour>
			<point x="-177.543" y="10.809" type="line"/>
			<point x="-77.543" y="1190.809" type="line"/>
			<point x="177.543" y="1169.191" type="line"/>
			<point x="77.543" y="-10.809" type="line"/>
		</contour>
	</outline>
</glyph>
<glyph name="pos.119" format="2">
	<advance width="100"/>
	<outline>
		<contour>
			<point x="-177.55" y="10.719" type="line"/>
			<point x="-77.55" y="1200.719" type="line"/>
			<point x="177.55" y="1179.281" type="line"/>
			<point x="77.55" y="-10.719" type="line"/>
		</contour>
	</outline>
</glyph>
<glyph name="pos.12" format="2">
	<advance width="100"/>
	<outline>
		<contour>
			<point x="-126.822" y="64.018" type="line"/>
			<point x="-26.822" y="184.018" type="line"/>
			<point x="126.822" y="55.982" type="line"/>
			<point x="26.822" y="-64.018" type="line"/>
		</contour>
	</outline>
</glyph>
<glyph name="pos.120" format="2">
	<advance width="100"/>
	<outline>
		<contour>
			<point x="-174.568" y="10.381" type="line"/>
			<point x="-74.568" y="1210.381" type="line"/>
			<point x="174.568" y="1189.619" type="line"/>
			<point x="74.568" y="-10.381" type="line"/>
		</contour>
	</outline>
</glyph>
<glyph name="pos.121" format="2">
	<advance width="100"/>
	<outline>
		<contour>
			<point x="-149.66" y="8.236" type="line"/>
			<point x="-49.66" y="1218.236" type="line"/>
			<point x="149.66" y="1201.764" type="line"/>
			<point x="49.66" y="-8.236" type="line"/>
		</contour>
	</outline>
</glyph>
<glyph name="pos.122" format="2">
	<advance width="100"/>
	<outline>
		<contour>
			<point x="-177.572" y="10.457" type="line"/>
			<point x="-77.572" y="1230.457" type="line"/>
			<point x="177.572" y="1209.543" type="line"/>
			<point x="77.572" y="-10.457" type="line"/>
		</contour>
	</outline>
</glyph>
<glyph name="pos.123" format="2">
	<advance width="100"/>
	<outline>
		<contour>
			<point x="-149.671" y="8.103" type="line"/>
			<point x="-49.671" y="1238.103" type="line"/>
			<point x="149.671" y="1221.897" type="line"/>
			<point x="49.671" y="-8.103" type="line"/>
		</contour>
	</outline>
</glyph>
<glyph name="pos.125" format="2">
	<advance width="100"/>
	<outline>
		<contour>
			<point x="-177.592" y="10.207" type="line"/>
			<point x="-77.592" y="1260.207" type="line"/>
			<point x="177.592" y="1239.793" type="line"/>
			<point x="77.592" y="-10.207" type="line"/>
		</contour>
	</outline>
</glyph>
<glyph name="pos.14" format="2">
	<advance width="100"/>
	<outline>
		<contour>
			<point x="-151.717" y="72.655" type="line"/>
			<point x="-51.717" y="212.655" type="line"/>
			<point x="151.717" y="67.345" type="line"/>
			<point x="51.717" y="-72.655" type="line"/>
		</contour>
	</outline>
</glyph>
<glyph name="pos.15" format="2">
	<advance width="100"/>
	<outline>
		<contour>
			<point x="-156.502" y="71.002" type="line"/>
			<point x="-56.502" y="221.002" type="line"/>
			<point x="156.502" y="78.998" type="line"/>
			<point x="56.502" y="-71.002" type="line"/>
		</contour>
	</outline>
</glyph>
<glyph name="pos.16" format="2">
	<advance width="100"/>
	<outline>
		<contour>
			<point x="-158.544" y="67.84" type="line"/>
			<point x="-58.544" y="227.84" type="line"/>
			<point x="158.544" y="92.16" type="line"/>
			<point x="58.544" y="-67.84" type="line"/>
		</contour>
	</outline>
</glyph>
<glyph name="pos.17" format="2">
	<advance width="100"/>
	<outline>
		<contour>
			<point x="-157.742" y="63.378" type="line"/>
			<point x="-57.742" y="233.378" type="line"/>
			<point x="157.742" y="106.622" type="line"/>
			<point x="57.742" y="-63.378" type="line"/>
		</contour>
	</outline>
</glyph>
<glyph name="pos.18" format="2">
	<advance width="100"/>
	<outline>
		<contour>
			<point x="-161.892" y="62.162" type="line"/>
			<point x="-61.892" y="242.162" type="line"/>
			<point x="161.892" y="117.838" type="line"/>
			<point x="61.892" y="-62.162" type="line"/>
		</contour>
	</outline>
</glyph>
<glyph name="pos.19" format="2">
	<advance width="100"/>
	<outline>
		<contour>
			<point x="-160.615" y="58.218" type="line"/>
			<point x="-60.615" y="248.218" type="line"/>
			<point x="160.615" y="131.782" type="line"/>
			<point x="60.615" y="-58.218" type="line"/>
		</contour>
	</outline>
</glyph>
<glyph name="pos.2" format="2">
	<advance width="100"/>
	<outline>
		<contour>
			<point x="-74.515" y="122.573" type="line"/>
			<point x="25.485" y="142.573" type="line"/>
			<point x="74.515" y="-102.573" type="line"/>
			<point x="-25.485" y="-122.573" type="line"/>
		</contour>
	</outline>
</glyph>
<glyph name="pos.20" format="2">
	<advance width="100"/>
	<outline>
		<contour>
			<point x="-139.443" y="44.721" type="line"/>
			<point x="-39.443" y="244.721" type="line"/>
			<point x="139.443" y="155.279" type="line"/>
			<point x="39.443" y="-44.721" type="line"/>
		</contour>
	</outline>
</glyph>
<glyph name="pos.21" format="2">
	<advance width="100"/>
	<outline>
		<contour>
			<point x="-165.566" y="55.031" type="line"/>
			<point x="-65.566" y="265.031" type="line"/>
			<point x="165.566" y="154.969" type="line"/>
			<point x="65.566" y="-55.031" type="line"/>
		</contour>
	</outline>
</glyph>
<glyph name="pos.22" format="2">
	<advance width="100"/>
	<outline>
		<contour>
			<point x="-166.527" y="52.967" type="line"/>
			<point x="-66.527" y="272.967" type="line"/>
			<point x="166.527" y="167.033" type="line"/>
			<point x="66.527" y="-52.967" type="line"/>
		</contour>
	</outline>
</glyph>
<glyph name="pos.23" format="2">
	<advance width="100"/>
	<outline>
		<contour>
			<point x="-167.385" y="51.037" type="line"/>
			<point x="-67.385" y="281.037" type="line"/>
			<point x="167.385" y="178.963" type="line"/>
			<point x="67.385" y="-51.037" type="line"/>
		</contour>
	</outline>
</glyph>
<glyph name="pos.24" format="2">
	<advance width="100"/>
	<outline>
		<contour>
			<point x="-168.154" y="49.231" type="line"/>
			<point x="-68.154" y="289.231" type="line"/>
			<point x="168.154" y="190.769" type="line"/>
			<point x="68.154" y="-49.231" type="line"/>
		</contour>
	</outline>
</glyph>
<glyph name="pos.25" format="2">
	<advance width="100"/>
	<outline>
		<contour>
			<point x="-166.06" y="46.424" type="line"/>
			<point x="-66.06" y="296.424" type="line"/>
			<point x="166.06" y="203.576" type="line"/>
			<point x="66.06" y="-46.424" type="line"/>
		</contour>
	</outline>
</glyph>
<glyph name="pos.26" format="2">
	<advance width="100"/>
	<outline>
		<contour>
			<point x="-166.668" y="44.872" type="line"/>
			<point x="-66.668" y="304.872" type="line"/>
			<point x="166.668" y="215.128" type="line"/>
			<point x="66.668" y="-44.872" type="line"/>
		</contour>
	</outline>
</glyph>
<glyph name="pos.29" format="2">
	<advance width="100"/>
	<outline>
		<contour>
			<point x="-168.172" y="40.749" type="line"/>
			<point x="-68.172" y="330.749" type="line"/>
			<point x="168.172" y="249.251" type="line"/>
			<point x="68.172" y="-40.749" type="line"/>
		</contour>
	</outline>
</glyph>
<glyph name="pos.3" format="2">
	<advance width="100"/>
	<outline>
		<contour>
			<point x="-78.735" y="95.783" type="line"/>
			<point x="21.265" y="125.783" type="line"/>
			<point x="78.735" y="-65.783" type="line"/>
			<point x="-21.265" y="-95.783" type="line"/>
		</contour>
	</outline>
</glyph>
<glyph name="pos.30" format="2">
	<advance width="100"/>
	<outline>
		<contour>
			<point x="-171.431" y="40.477" type="line"/>
			<point x="-71.431" y="340.477" type="line"/>
			<point x="171.431" y="259.523" type="line"/>
			<point x="71.431" y="-40.477" type="line"/>
		</contour>
	</outline>
</glyph>
<glyph name="pos.31" format="2">
	<advance width="100"/>
	<outline>
		<contour>
			<point x="-168.964" y="38.375" type="line"/>
			<point x="-68.964" y="348.375" type="line"/>
			<point x="168.964" y="271.625" type="line"/>
			<point x="68.964" y="-38.375" type="line"/>
		</contour>
	</outline>
</glyph>
<glyph name="pos.32" format="2">
	<advance width="100"/>
	<outline>
		<contour>
			<point x="-169.31" y="37.284" type="line"/>
			<point x="-69.31" y="357.284" type="line"/>
			<point x="169.31" y="282.716" type="line"/>
			<point x="69.31" y="-37.284" type="line"/>
		</contour>
	</outline>
</glyph>
<glyph name="pos.33" format="2">
	<advance width="100"/>
	<outline>
		<contour>
			<point x="-172.499" y="37.121" type="line"/>
			<point x="-72.499" y="367.121" type="line"/>
			<point x="172.499" y="292.879" type="line"/>
			<point x="72.499" y="-37.121" type="line"/>
		</contour>
	</outline>
</glyph>
<glyph name="pos.34" format="2">
	<advance width="100"/>
	<outline>
		<contour>
			<point x="-169.921" y="35.271" type="line"/>
			<point x="-69.921" y="375.271" type="line"/>
			<point x="169.921" y="304.729" type="line"/>
			<point x="69.921" y="-35.271" type="line"/>
		</contour>
	</outline>
</glyph>
<glyph name="pos.35" format="2">
	<advance width="100"/>
	<outline>
		<contour>
			<point x="-170.19" y="34.34" type="line"/>
			<point x="-70.19" y="384.34" type="line"/>
			<point x="170.19" y="315.66" type="line"/>
			<point x="70.19" y="-34.34" type="line"/>
		</contour>
	</outline>
</glyph>
<glyph name="pos.36" format="2">
	<advance width="100"/>
	<outline>
		<contour>
			<point x="-170.44" y="33.455" type="line"/>
			<point x="-70.44" y="393.455" type="line"/>
			<point x="170.44" y="326.545" type="line"/>
			<point x="70.44" y="-33.455" type="line"/>
		</contour>
	</outline>
</glyph>
<glyph name="pos.37" format="2">
	<advance width="100"/>
	<outline>
		<contour>
			<point x="-146.536" y="26.091" type="line"/>
			<point x="-46.536" y="396.091" type="line"/>
			<point x="146.536" y="343.909" type="line"/>
			<point x="46.536" y="-26.091" type="line"/>
		</contour>
	</outline>
</glyph>
<glyph name="pos.38" format="2">
	<advance width="100"/>
	<outline>
		<contour>
			<point x="-173.786" y="32.575" type="line"/>
			<point x="-73.786" y="412.575" type="line"/>
			<point x="173.786" y="347.425" type="line"/>
			<point x="73.786" y="-32.575" type="line"/>
		</contour>
	</outline>
</glyph>
<glyph name="pos.39" format="2">
	<advance width="100"/>
	<outline>
		<contour>
			<point x="-171.083" y="31.047" type="line"/>
			<point x="-71.083" y="421.047" type="line"/>
			<point x="171.083" y="358.953" type="line"/>
			<point x="71.083" y="-31.047" type="line"/>
		</contour>
	</outline>
</glyph>
<glyph name="pos.4" format="2">
	<advance width="100"/>
	<outline>
		<contour>
			<point x="-96.424" y="116.06" type="line"/>
			<point x="3.576" y="156.06" type="line"/>
			<point x="96.424" y="-76.06" type="line"/>
			<point x="-3.576" y="-116.06" type="line"/>
		</contour>
	</outline>
</glyph>
<glyph name="pos.40" format="2">
	<advance width="100"/>
	<outline>
		<contour>
			<point x="-174.178" y="31.045" type="line"/>
			<point x="-74.178" y="431.045" type="line"/>
			<point x="174.178" y="368.955" type="line"/>
			<point x="74.178" y="-31.045" type="line"/>
		</contour>
	</outline>
</glyph>
<glyph name="pos.41" format="2">
	<advance width="100"/>
	<outline>
		<contour>
			<point x="-174.355" y="30.33" type="line"/>
			<point x="-74.355" y="440.33" type="line"/>
			<point x="174.355" y="379.67" type="line"/>
			<point x="74.355" y="-30.33" type="line"/>
		</contour>
	</outline>
</glyph>
<glyph name="pos.42" format="2">
	<advance width="100"/>
	<outline>
		<contour>
			<point x="-174.519" y="29.647" type="line"/>
			<point x="-74.519" y="449.647" type="line"/>
			<point x="174.519" y="390.353" type="line"/>
			<point x="74.519" y="-29.647" type="line"/>
		</contour>
	</outline>
</glyph>
<glyph name="pos.43" format="2">
	<advance width="100"/>
	<outline>
		<contour>
			<point x="-171.751" y="28.314" type="line"/>
			<point x="-71.751" y="458.314" type="line"/>
			<point x="171.751" y="401.686" type="line"/>
			<point x="71.751" y="-28.314" type="line"/>
		</contour>
	</outline>
</glyph>
<glyph name="pos.44" format="2">
	<advance width="100"/>
	<outline>
		<contour>
			<point x="-174.817" y="28.368" type="line"/>
			<point x="-74.817" y="468.368" type="line"/>
			<point x="174.817" y="411.632" type="line"/>
			<point x="74.817" y="-28.368" type="line"/>
		</contour>
	</outline>
</glyph>
<glyph name="pos.45" format="2">
	<advance width="100"/>
	<outline>
		<contour>
			<point x="-174.952" y="27.767" type="line"/>
			<point x="-74.952" y="477.767" type="line"/>
			<point x="174.952" y="422.233" type="line"/>
			<point x="74.952" y="-27.767" type="line"/>
		</contour>
	</outline>
</glyph>
<glyph name="pos.46" format="2">
	<advance width="100"/>
	<outline>
		<contour>
			<point x="-172.147" y="26.554" type="line"/>
			<point x="-72.147" y="486.554" type="line"/>
			<point x="172.147" y="433.446" type="line"/>
			<point x="72.147" y="-26.554" type="line"/>
		</contour>
	</outline>
</glyph>
<glyph name="pos.47" format="2">
	<advance width="100"/>
	<outline>
		<contour>
			<point x="-175.198" y="26.638" type="line"/>
			<point x="-75.198" y="496.638" type="line"/>
			<point x="175.198" y="443.362" type="line"/>
			<point x="75.198" y="-26.638" type="line"/>
		</contour>
	</outline>
</glyph>
<glyph name="pos.48" format="2">
	<advance width="100"/>
	<outline>
		<contour>
			<point x="-175.309" y="26.106" type="line"/>
			<point x="-75.309" y="506.106" type="line"/>
			<point x="175.309" y="453.894" type="line"/>
			<point x="75.309" y="-26.106" type="line"/>
		</contour>
	</outline>
</glyph>
<glyph name="pos.49" format="2">
	<advance width="100"/>
	<outline>
		<contour>
			<point x="-172.476" y="24.995" type="line"/>
			<point x="-72.476" y="514.995" type="line"/>
			<point x="172.476" y="465.005" type="line"/>
			<point x="72.476" y="-24.995" type="line"/>
		</contour>
	</outline>
</glyph>
<glyph name="pos.5" format="2">
	<advance width="100"/>
	<outline>
		<contour>
			<point x="-105.902" y="111.803" type="line"/>
			<point x="-5.902" y="161.803" type="line"/>
			<point x="105.902" y="-61.803" type="line"/>
			<point x="5.902" y="-111.803" type="line"/>
		</contour>
	</outline>
</glyph>
<glyph name="pos.50" format="2">
	<advance width="100"/>
	<outline>
		<contour>
			<point x="-172.573" y="24.515" type="line"/>
			<point x="-72.573" y="524.515" type="line"/>
			<point x="172.573" y="475.485" type="line"/>
			<point x="72.573" y="-24.515" type="line"/>
		</contour>
	</outline>
</glyph>
<glyph name="pos.51" format="2">
	<advance width="100"/>
	<outline>
		<contour>
			<point x="-175.608" y="24.629" type="line"/>
			<point x="-75.608" y="534.629" type="line"/>
			<point x="175.608" y="485.371" type="line"/>
			<point x="75.608" y="-24.629" type="line"/>
		</contour>
	</outline>
</glyph>
<glyph name="pos.52" format="2">
	<advance width="100"/>
	<outline>
		<contour>
			<point x="-175.697" y="24.172" type="line"/>
			<point x="-75.697" y="544.172" type="line"/>
			<point x="175.697" y="495.828" type="line"/>
			<point x="75.697" y="-24.172" type="line"/>
		</contour>
	</outline>
</glyph>
<glyph name="pos.53" format="2">
	<advance width="100"/>
	<outline>
		<contour>
			<point x="-175.781" y="23.732" type="line"/>
			<point x="-75.781" y="553.732" type="line"/>
			<point x="175.781" y="506.268" type="line"/>
			<point x="75.781" y="-23.732" type="line"/>
		</contour>
	</outline>
</glyph>
<glyph name="pos.54" format="2">
	<advance width="100"/>
	<outline>
		<contour>
			<point x="-175.86" y="23.307" type="line"/>
			<point x="-75.86" y="563.307" type="line"/>
			<point x="175.86" y="516.693" type="line"/>
			<point x="75.86" y="-23.307" type="line"/>
		</contour>
	</outline>
</glyph>
<glyph name="pos.55" format="2">
	<advance width="100"/>
	<outline>
		<contour>
			<point x="-175.935" y="22.897" type="line"/>
			<point x="-75.935" y="572.897" type="line"/>
			<point x="175.935" y="527.103" type="line"/>
			<point x="75.935" y="-22.897" type="line"/>
		</contour>
	</outline>
</glyph>
<glyph name="pos.56" format="2">
	<advance width="100"/>
	<outline>
		<contour>
			<point x="-173.053" y="21.974" type="line"/>
			<point x="-73.053" y="581.974" type="line"/>
			<point x="173.053" y="538.026" type="line"/>
			<point x="73.053" y="-21.974" type="line"/>
		</contour>
	</outline>
</glyph>
<glyph name="pos.57" format="2">
	<advance width="100"/>
	<outline>
		<contour>
			<point x="-148.496" y="17.28" type="line"/>
			<point x="-48.496" y="587.28" type="line"/>
			<point x="148.496" y="552.72" type="line"/>
			<point x="48.496" y="-17.28" type="line"/>
		</contour>
	</outline>
</glyph>
<glyph name="pos.58" format="2">
	<advance width="100"/>
	<outline>
		<contour>
			<point x="-176.139" y="21.748" type="line"/>
			<point x="-76.139" y="601.748" type="line"/>
			<point x="176.139" y="558.252" type="line"/>
			<point x="76.139" y="-21.748" type="line"/>
		</contour>
	</outline>
</glyph>
<glyph name="pos.59" format="2">
	<advance width="100"/>
	<outline>
		<contour>
			<point x="-148.594" y="16.711" type="line"/>
			<point x="-48.594" y="606.711" type="line"/>
			<point x="148.594" y="573.289" type="line"/>
			<point x="48.594" y="-16.711" type="line"/>
		</contour>
	</outline>
</glyph>
<glyph name="pos.60" format="2">
	<advance width="100"/>
	<outline>
		<contour>
			<point x="-173.299" y="20.55" type="line"/>
			<point x="-73.299" y="620.55" type="line"/>
			<point x="173.299" y="579.45" type="line"/>
			<point x="73.299" y="-20.55" type="line"/>
		</contour>
	</outline>
</glyph>
<glyph name="pos.62" format="2">
	<advance width="100"/>
	<outline>
		<contour>
			<point x="-176.367" y="20.382" type="line"/>
			<point x="-76.367" y="640.382" type="line"/>
			<point x="176.367" y="599.618" type="line"/>
			<point x="76.367" y="-20.382" type="line"/>
		</contour>
	</outline>
</glyph>
<glyph name="pos.63" format="2">
	<advance width="100"/>
	<outline>
		<contour>
			<point x="-176.417" y="20.066" type="line"/>
			<point x="-76.417" y="650.066" type="line"/>
			<point x="176.417" y="609.934" type="line"/>
			<point x="76.417" y="-20.066" type="line"/>
		</contour>
	</outline>
</glyph>
<glyph name="pos.64" format="2">
	<advance width="100"/>
	<outline>
		<contour>
			<point x="-176.466" y="19.76" type="line"/>
			<point x="-76.466" y="659.76" type="line"/>
			<point x="176.466" y="620.24" type="line"/>
			<point x="76.466" y="-19.76" type="line"/>
		</contour>
	</outline>
</glyph>
<glyph name="pos.66" format="2">
	<advance width="100"/>
	<outline>
		<contour>
			<point x="-148.872" y="14.981" type="line"/>
			<point x="-48.872" y="674.981" type="line"/>
			<point x="148.872" y="645.019" type="line"/>
			<point x="48.872" y="-14.981" type="line"/>
		</contour>
	</outline>
</glyph>
<glyph name="pos.67" format="2">
	<advance width="100"/>
	<outline>
		<contour>
			<point x="-176.598" y="18.895" type="line"/>
			<point x="-76.598" y="688.895" type="line"/>
			<point x="176.598" y="651.105" type="line"/>
			<point x="76.598" y="-18.895" type="line"/>
		</contour>
	</outline>
</glyph>
<glyph name="pos.68" format="2">
	<advance width="100"/>
	<outline>
		<contour>
			<point x="-173.67" y="18.187" type="line"/>
			<point x="-73.67" y="698.187" type="line"/>
			<point x="173.67" y="661.813" type="line"/>
			<point x="73.67" y="-18.187" type="line"/>
		</contour>
	</outline>
</glyph>
<glyph name="pos.69" format="2">
	<advance width="100"/>
	<outline>
		<contour>
			<point x="-173.708" y="17.929" type="line"/>
			<point x="-73.708" y="707.929" type="line"/>
			<point x="173.708" y="672.071" type="line"/>
			<point x="73.708" y="-17.929" type="line"/>
		</contour>
	</outline>
</glyph>
<glyph name="pos.7" format="2">
	<advance width="100"/>
	<outline>
		<contour>
			<point x="-123.403" y="104.862" type="line"/>
			<point x="-23.403" y="174.862" type="line"/>
			<point x="123.403" y="-34.862" type="line"/>
			<point x="23.403" y="-104.862" type="line"/>
		</contour>
	</outline>
</glyph>
<glyph name="pos.70" format="2">
	<advance width="100"/>
	<outline>
		<contour>
			<point x="-173.744" y="17.678" type="line"/>
			<point x="-73.744" y="717.678" type="line"/>
			<point x="173.744" y="682.322" type="line"/>
			<point x="73.744" y="-17.678" type="line"/>
		</contour>
	</outline>
</glyph>
<glyph name="pos.71" format="2">
	<advance width="100"/>
	<outline>
		<contour>
			<point x="-149.023" y="13.947" type="line"/>
			<point x="-49.023" y="723.947" type="line"/>
			<point x="149.023" y="696.053" type="line"/>
			<point x="49.023" y="-13.947" type="line"/>
		</contour>
	</outline>
</glyph>
<glyph name="pos.72" format="2">
	<advance width="100"/>
	<outline>
		<contour>
			<point x="-173.812" y="17.196" type="line"/>
			<point x="-73.812" y="737.196" type="line"/>
			<point x="173.812" y="702.804" type="line"/>
			<point x="73.812" y="-17.196" type="line"/>
		</contour>
	</outline>
</glyph>
<glyph name="pos.73" format="2">
	<advance width="100"/>
	<outline>
		<contour>
			<point x="-173.843" y="16.965" type="line"/>
			<point x="-73.843" y="746.965" type="line"/>
			<point x="173.843" y="713.035" type="line"/>
			<point x="73.843" y="-16.965" type="line"/>
		</contour>
	</outline>
</glyph>
<glyph name="pos.74" format="2">
	<advance width="100"/>
	<outline>
		<contour>
			<point x="-176.847" y="17.141" type="line"/>
			<point x="-76.847" y="757.141" type="line"/>
			<point x="176.847" y="722.859" type="line"/>
			<point x="76.847" y="-17.141" type="line"/>
		</contour>
	</outline>
</glyph>
<glyph name="pos.75" format="2">
	<advance width="100"/>
	<outline>
		<contour>
			<point x="-173.903" y="16.52" type="line"/>
			<point x="-73.903" y="766.52" type="line"/>
			<point x="173.903" y="733.48" type="line"/>
			<point x="73.903" y="-16.52" type="line"/>
		</contour>
	</outline>
</glyph>
<glyph name="pos.76" format="2">
	<advance width="100"/>
	<outline>
		<contour>
			<point x="-173.932" y="16.307" type="line"/>
			<point x="-73.932" y="776.307" type="line"/>
			<point x="173.932" y="743.693" type="line"/>
			<point x="73.932" y="-16.307" type="line"/>
		</contour>
	</outline>
</glyph>
<glyph name="pos.77" format="2">
	<advance width="100"/>
	<outline>
		<contour>
			<point x="-176.934" y="16.485" type="line"/>
			<point x="-76.934" y="786.485" type="line"/>
			<point x="176.934" y="753.515" type="line"/>
			<point x="76.934" y="-16.485" type="line"/>
		</contour>
	</outline>
</glyph>
<glyph name="pos.78" format="2">
	<advance width="100"/>
	<outline>
		<contour>
			<point x="-176.961" y="16.277" type="line"/>
			<point x="-76.961" y="796.277" type="line"/>
			<point x="176.961" y="763.723" type="line"/>
			<point x="76.961" y="-16.277" type="line"/>
		</contour>
	</outline>
</glyph>
<glyph name="pos.79" format="2">
	<advance width="100"/>
	<outline>
		<contour>
			<point x="-176.987" y="16.074" type="line"/>
			<point x="-76.987" y="806.074" type="line"/>
			<point x="176.987" y="773.926" type="line"/>
			<point x="76.987" y="-16.074" type="line"/>
		</contour>
	</outline>
</glyph>
<glyph name="pos.8" format="2">
	<advance width="100"/>
	<outline>
		<contour>
			<point x="-129.961" y="99.951" type="line"/>
			<point x="-29.961" y="179.951" type="line"/>
			<point x="129.961" y="-19.951" type="line"/>
			<point x="29.961" y="-99.951" type="line"/>
		</contour>
	</outline>
</glyph>
<glyph name="pos.80" format="2">
	<advance width="100"/>
	<outline>
		<contour>
			<point x="-174.035" y="15.504" type="line"/>
			<point x="-74.035" y="815.504" type="line"/>
			<point x="174.035" y="784.496" type="line"/>
			<point x="74.035" y="-15.504" type="line"/>
		</contour>
	</outline>
</glyph>
<glyph name="pos.81" format="2">
	<advance width="100"/>
	<outline>
		<contour>
			<point x="-177.036" y="15.683" type="line"/>
			<point x="-77.036" y="825.683" type="line"/>
			<point x="177.036" y="794.317" type="line"/>
			<point x="77.036" y="-15.683" type="line"/>
		</contour>
	</outline>
</glyph>
<glyph name="pos.83" format="2">
	<advance width="100"/>
	<outline>
		<contour>
			<point x="-149.282" y="11.962" type="line"/>
			<point x="-49.282" y="841.962" type="line"/>
			<point x="149.282" y="818.038" type="line"/>
			<point x="49.282" y="-11.962" type="line"/>
		</contour>
	</outline>
</glyph>
<glyph name="pos.84" format="2">
	<advance width="100"/>
	<outline>
		<contour>
			<point x="-177.102" y="15.131" type="line"/>
			<point x="-77.102" y="855.131" type="line"/>
			<point x="177.102" y="824.869" type="line"/>
			<point x="77.102" y="-15.131" type="line"/>
		</contour>
	</outline>
</glyph>
<glyph name="pos.85" format="2">
	<advance width="100"/>
	<outline>
		<contour>
			<point x="-174.144" y="14.605" type="line"/>
			<point x="-74.144" y="864.605" type="line"/>
			<point x="174.144" y="835.395" type="line"/>
			<point x="74.144" y="-14.605" type="line"/>
		</contour>
	</outline>
</glyph>
<glyph name="pos.86" format="2">
	<advance width="100"/>
	<outline>
		<contour>
			<point x="-174.163" y="14.438" type="line"/>
			<point x="-74.163" y="874.438" type="line"/>
			<point x="174.163" y="845.562" type="line"/>
			<point x="74.163" y="-14.438" type="line"/>
		</contour>
	</outline>
</glyph>
<glyph name="pos.87" format="2">
	<advance width="100"/>
	<outline>
		<contour>
			<point x="-177.163" y="14.616" type="line"/>
			<point x="-77.163" y="884.616" type="line"/>
			<point x="177.163" y="855.384" type="line"/>
			<point x="77.163" y="-14.616" type="line"/>
		</contour>
	</outline>
</glyph>
<glyph name="pos.88" format="2">
	<advance width="100"/>
	<outline>
		<contour>
			<point x="-177.181" y="14.452" type="line"/>
			<point x="-77.181" y="894.452" type="line"/>
			<point x="177.181" y="865.548" type="line"/>
			<point x="77.181" y="-14.452" type="line"/>
		</contour>
	</outline>
</glyph>
<glyph name="pos.89" format="2">
	<advance width="100"/>
	<outline>
		<contour>
			<point x="-177.2" y="14.292" type="line"/>
			<point x="-77.2" y="904.292" type="line"/>
			<point x="177.2" y="875.708" type="line"/>
			<point x="77.2" y="-14.292" type="line"/>
		</contour>
	</outline>
</glyph>
<glyph name="pos.90" format="2">
	<advance width="100"/>
	<outline>
		<contour>
			<point x="-174.235" y="13.804" type="line"/>
			<point x="-74.235" y="913.804" type="line"/>
			<point x="174.235" y="886.196" type="line"/>
			<point x="74.235" y="-13.804" type="line"/>
		</contour>
	</outline>
</glyph>
<glyph name="pos.91" format="2">
	<advance width="100"/>
	<outline>
		<contour>
			<point x="-177.234" y="13.982" type="line"/>
			<point x="-77.234" y="923.982" type="line"/>
			<point x="177.234" y="896.018" type="line"/>
			<point x="77.234" y="-13.982" type="line"/>
		</contour>
	</outline>
</glyph>
<glyph name="pos.92" format="2">
	<advance width="100"/>
	<outline>
		<contour>
			<point x="-149.414" y="10.806" type="line"/>
			<point x="-49.414" y="930.806" type="line"/>
			<point x="149.414" y="909.194" type="line"/>
			<point x="49.414" y="-10.806" type="line"/>
		</contour>
	</outline>
</glyph>
<glyph name="pos.94" format="2">
	<advance width="100"/>
	<outline>
		<contour>
			<point x="-174.299" y="13.223" type="line"/>
			<point x="-74.299" y="953.223" type="line"/>
			<point x="174.299" y="926.777" type="line"/>
			<point x="74.299" y="-13.223" type="line"/>
		</contour>
	</outline>
</glyph>
<glyph name="pos.95" format="2">
	<advance width="100"/>
	<outline>
		<contour>
			<point x="-177.297" y="13.4" type="line"/>
			<point x="-77.297" y="963.4" type="line"/>
			<point x="177.297" y="936.6" type="line"/>
			<point x="77.297" y="-13.4" type="line"/>
		</contour>
	</outline>
</glyph>
<glyph name="pos.96" format="2">
	<advance width="100"/>
	<outline>
		<contour>
			<point x="-177.311" y="13.262" type="line"/>
			<point x="-77.311" y="973.262" type="line"/>
			<point x="177.311" y="946.738" type="line"/>
			<point x="77.311" y="-13.262" type="line"/>
		</contour>
	</outline>
</glyph>
<glyph name="pos.97" format="2">
	<advance width="100"/>
	<outline>
		<contour>
			<point x="-174.341" y="12.819" type="line"/>
			<point x="-74.341" y="982.819" type="line"/>
			<point x="174.341" y="957.181" type="line"/>
			<point x="74.341" y="-12.819" type="line"/>
		</contour>
	</outline>
</glyph>
<glyph name="pos.98" format="2">
	<advance width="100"/>
	<outline>
		<contour>
			<point x="-174.354" y="12.689" type="line"/>
			<point x="-74.354" y="992.689" type="line"/>
			<point x="174.354" y="967.311" type="line"/>
			<point x="74.354" y="-12.689" type="line"/>
		</contour>
	</outline>
</glyph>
<glyph name="to-1" format="2">
	<advance width="100"/>
	<outline>
		<contour>
			<point x="-29.9" y="200.998" type="line"/>
			<point x="70.1" y="190.998" type="line"/>
			<point x="29.9" y="-210.998" type="line"/>
			<point x="-70.1" y="-200.998" type="line"/>
		</contour>
	</outline>
</glyph>
<glyph name="to-10" format="2">
	<advance width="100"/>
	<outline>
		<contour>
			<point x="20.711" y="70.711" type="line"/>
			<point x="120.711" y="-29.289" type="line"/>
			<point x="-20.711" y="-170.711" type="line"/>
			<point x="-120.711" y="-70.711" type="line"/>
		</contour>
	</outline>
</glyph>
<glyph name="to-100" format="2">
	<advance width="100"/>
	<outline>
		<contour>
			<point x="150.998" y="20.1" type="line"/>
			<point x="250.998" y="-979.9" type="line"/>
			<point x="-150.998" y="-1020.1" type="line"/>
			<point x="-250.998" y="-20.1" type="line"/>
		</contour>
	</outline>
</glyph>
<glyph name="to-101" format="2">
	<advance width="100"/>
	<outline>
		<contour>
			<point x="151.017" y="19.903" type="line"/>
			<point x="251.017" y="-990.097" type="line"/>
			<point x="-151.017" y="-1029.903" type="line"/>
			<point x="-251.017" y="-19.903" type="line"/>
		</contour>
	</outline>
</glyph>
<glyph name="to-102" format="2">
	<advance width="100"/>
	<outline>
		<contour>
			<point x="149.046" y="19.514" type="line"/>
			<point x="249.046" y="-1000.486" type="line"/>
			<point x="-149.046" y="-1039.514" type="line"/>
			<point x="-249.046" y="-19.514" type="line"/>
		</contour>
	</outline>
</glyph>
<glyph name="to-103" format="2">
	<advance width="100"/>
	<outline>
		<contour>
			<point x="49.532" y="9.663" type="line"/>
			<point x="149.532" y="-1020.337" type="line"/>
			<point x="-49.532" y="-1039.663" type="line"/>
			<point x="-149.532" y="-9.663" type="line"/>
		</contour>
	</outline>
</glyph>
<glyph name="to-104" format="2">
	<advance width="100"/>
	<outline>
		<contour>
			<point x="151.073" y="19.334" type="line"/>
			<point x="251.073" y="-1020.666" type="line"/>
			<point x="-151.073" y="-1059.334" type="line"/>
			<point x="-251.073" y="-19.334" type="line"/>
		</contour>
	</outline>
</glyph>
<glyph name="to-106" format="2">
	<advance width="100"/>
	<outline>
		<contour>
			<point x="49.558" y="9.392" type="line"/>
			<point x="149.558" y="-1050.608" type="line"/>
			<point x="-49.558" y="-1069.392" type="line"/>
			<point x="-149.558" y="-9.392" type="line"/>
		</contour>
	</outline>
</glyph>
<glyph name="to-107" format="2">
	<advance width="100"/>
	<outline>
		<contour>
			<point x="49.566" y="9.305" type="line"/>
			<point x="149.566" y="-1060.695" type="line"/>
			<point x="-49.566" y="-1079.305" type="line"/>
			<point x="-149.566" y="-9.305" type="line"/>
		</contour>
	</outline>
</glyph>
<glyph name="to-108" format="2">
	<advance width="100"/>
	<outline>
		<contour>
			<point x="149.148" y="18.44" type="line"/>
			<point x="249.148" y="-1061.56" type="line"/>
			<point x="-149.148" y="-1098.44" type="line"/>
			<point x="-249.148" y="-18.44" type="line"/>
		</contour>
	</outline>
</glyph>
<glyph name="to-109" format="2">
	<advance width="100"/>
	<outline>
		<contour>
			<point x="149.164" y="18.272" type="line"/>
			<point x="249.164" y="-1071.728" type="line"/>
			<point x="-149.164" y="-1108.272" type="line"/>
			<point x="-249.164" y="-18.272" type="line"/>
		</contour>
	</outline>
</glyph>
<glyph name="to-110" format="2">
	<advance width="100"/>
	<outline>
		<contour>
			<point x="151.17" y="18.288" type="line"/>
			<point x="251.17" y="-1081.712" type="line"/>
			<point x="-151.17" y="-1118.288" type="line"/>
			<point x="-251.17" y="-18.288" type="line"/>
		</contour>
	</outline>
</glyph>
<glyph name="to-111" format="2">
	<advance width="100"/>
	<outline>
		<contour>
			<point x="151.185" y="18.125" type="line"/>
			<point x="251.185" y="-1091.875" type="line"/>
			<point x="-151.185" y="-1128.125" type="line"/>
			<point x="-251.185" y="-18.125" type="line"/>
		</contour>
	</outline>
</glyph>
<glyph name="to-113" format="2">
	<advance width="100"/>
	<outline>
		<contour>
			<point x="151.214" y="17.807" type="line"/>
			<point x="251.214" y="-1112.193" type="line"/>
			<point x="-151.214" y="-1147.807" type="line"/>
			<point x="-251.214" y="-17.807" type="line"/>
		</contour>
	</outline>
</glyph>
<glyph name="to-115" format="2">
	<advance width="100"/>
	<outline>
		<contour>
			<point x="149.248" y="17.326" type="line"/>
			<point x="249.248" y="-1132.674" type="line"/>
			<point x="-149.248" y="-1167.326" type="line"/>
			<point x="-249.248" y="-17.326" type="line"/>
		</contour>
	</outline>
</glyph>
<glyph name="to-116" format="2">
	<advance width="100"/>
	<outline>
		<contour>
			<point x="149.261" y="17.178" type="line"/>
			<point x="249.261" y="-1142.822" type="line"/>
			<point x="-149.261" y="-1177.178" type="line"/>
			<point x="-249.261" y="-17.178" type="line"/>
		</contour>
	</outline>
</glyph>
<glyph name="to-117" format="2">
	<advance width="100"/>
	<outline>
		<contour>
			<point x="151.266" y="17.202" type="line"/>
			<point x="251.266" y="-1152.798" type="line"/>
			<point x="-151.266" y="-1187.202" type="line"/>
			<point x="-251.266" y="-17.202" type="line"/>
		</contour>
	</outline>
</glyph>
<glyph name="to-118" format="2">
	<advance width="100"/>
	<outline>
		<contour>
			<point x="151.279" y="17.058" type="line"/>
			<point x="251.279" y="-1162.942" type="line"/>
			<point x="-151.279" y="-1197.058" type="line"/>
			<point x="-251.279" y="-17.058" type="line"/>
		</contour>
	</outline>
</glyph>
<glyph name="to-119" format="2">
	<advance width="100"/>
	<outline>
		<contour>
			<point x="151.291" y="16.915" type="line"/>
			<point x="251.291" y="-1173.085" type="line"/>
			<point x="-151.291" y="-1206.915" type="line"/>
			<point x="-251.291" y="-16.915" type="line"/>
		</contour>
	</outline>
</glyph>
<glyph name="to-12" format="2">
	<advance width="100"/>
	<outline>
		<contour>
			<point x="105.181" y="129.317" type="line"/>
			<point x="205.181" y="9.317" type="line"/>
			<point x="-105.181" y="-249.317" type="line"/>
			<point x="-205.181" y="-129.317" type="line"/>
		</contour>
	</outline>
</glyph>
<glyph name="to-120" format="2">
	<advance width="100"/>
	<outline>
		<contour>
			<point x="49.655" y="8.305" type="line"/>
			<point x="149.655" y="-1191.695" type="line"/>
			<point x="-49.655" y="-1208.305" type="line"/>
			<point x="-149.655" y="-8.305" type="line"/>
		</contour>
	</outline>
</glyph>
<glyph name="to-121" format="2">
	<advance width="100"/>
	<outline>
		<contour>
			<point x="151.314" y="16.637" type="line"/>
			<point x="251.314" y="-1193.363" type="line"/>
			<point x="-151.314" y="-1226.637" type="line"/>
			<point x="-251.314" y="-16.637" type="line"/>
		</contour>
	</outline>
</glyph>
<glyph name="to-122" format="2">
	<advance width="100"/>
	<outline>
		<contour>
			<point x="149.332" y="16.339" type="line"/>
			<point x="249.332" y="-1203.661" type="line"/>
			<point x="-149.332" y="-1236.339" type="line"/>
			<point x="-249.332" y="-16.339" type="line"/>
		</contour>
	</outline>
</glyph>
<glyph name="to-125" format="2">
	<advance width="100"/>
	<outline>
		<contour>
			<point x="151.357" y="16.109" type="line"/>
			<point x="251.357" y="-1233.891" type="line"/>
			<point x="-151.357" y="-1266.109" type="line"/>
			<point x="-251.357" y="-16.109" type="line"/>
		</contour>
	</outline>
</glyph>
<glyph name="to-126" format="2">
	<advance width="100"/>
	<outline>
		<contour>
			<point x="149.373" y="15.823" type="line"/>
			<point x="249.373" y="-1244.177" type="line"/>
			<point x="-149.373" y="-1275.823" type="line"/>
			<point x="-249.373" y="-15.823" type="line"/>
		</contour>
	</outline>
</glyph>
<glyph name="to-127" format="2">
	<advance width="100"/>
	<outline>
		<contour>
			<point x="149.383" y="15.699" type="line"/>
			<point x="249.383" y="-1254.301" type="line"/>
			<point x="-149.383" y="-1285.699" type="line"/>
			<point x="-249.383" y="-15.699" type="line"/>
		</contour>
	</outline>
</glyph>
<glyph name="to-13" format="2">
	<advance width="100"/>
	<outline>
		<contour>
			<point x="110.11" y="123.162" type="line"/>
			<point x="210.11" y="-6.838" type="line"/>
			<point x="-110.11" y="-253.162" type="line"/>
			<point x="-210.11" y="-123.162" type="line"/>
		</contour>
	</outline>
</glyph>
<glyph name="to-16" format="2">
	<advance width="100"/>
	<outline>
		<contour>
			<point x="119.6" y="105" type="line"/>
			<point x="219.6" y="-54" type="line"/>
			<point x="-119.6" y="-265" type="line"/>
			<point x="-219.6" y="-105" type="line"/>
		</contour>
	</outline>
</glyph>
<glyph name="to-17" format="2">
	<advance width="100"/>
	<outline>
		<contour>
			<point x="124.111" y="102.418" type="line"/>
			<point x="224.111" y="-67.582" type="line"/>
			<point x="-124.111" y="-272.418" type="line"/>
			<point x="-224.111" y="-102.418" type="line"/>
		</contour>
	</outline>
</glyph>
<glyph name="to-18" format="2">
	<advance width="100"/>
	<outline>
		<contour>
			<point x="124.831" y="97.129" type="line"/>
			<point x="224.831" y="-82.871" type="line"/>
			<point x="-124.831" y="-277.129" type="line"/>
			<point x="-224.831" y="-97.129" type="line"/>
		</contour>
	</outline>
</glyph>
<glyph name="to-19" format="2">
	<advance width="100"/>
	<outline>
		<contour>
			<point x="126.984" y="93.149" type="line"/>
			<point x="226.984" y="-96.851" type="line"/>
			<point x="-126.984" y="-283.149" type="line"/>
			<point x="-226.984" y="-93.149" type="line"/>
		</contour>
	</outline>
</glyph>
<glyph name="to-2" format="2">
	<advance width="100"/>
	<outline>
		<contour>
			<point x="-10.385" y="198.077" type="line"/>
			<point x="89.615" y="178.077" type="line"/>
			<point x="10.385" y="-218.077" type="line"/>
			<point x="-89.615" y="-198.077" type="line"/>
		</contour>
	</outline>
</glyph>
<glyph name="to-21" format="2">
	<advance width="100"/>
	<outline>
		<contour>
			<point x="130.572" y="85.987" type="line"/>
			<point x="230.572" y="-124.013" type="line"/>
			<point x="-130.572" y="-295.987" type="line"/>
			<point x="-230.572" y="-85.987" type="line"/>
		</contour>
	</outline>
</glyph>
<glyph name="to-22" format="2">
	<advance width="100"/>
	<outline>
		<contour>
			<point x="132.073" y="82.761" type="line"/>
			<point x="232.073" y="-137.239" type="line"/>
			<point x="-132.073" y="-302.761" type="line"/>
			<point x="-232.073" y="-82.761" type="line"/>
		</contour>
	</outline>
</glyph>
<glyph name="to-23" format="2">
	<advance width="100"/>
	<outline>
		<contour>
			<point x="133.414" y="79.745" type="line"/>
			<point x="233.414" y="-150.255" type="line"/>
			<point x="-133.414" y="-309.745" type="line"/>
			<point x="-233.414" y="-79.745" type="line"/>
		</contour>
	</outline>
</glyph>
<glyph name="to-25" format="2">
	<advance width="100"/>
	<outline>
		<contour>
			<point x="135.695" y="74.278" type="line"/>
			<point x="235.695" y="-175.722" type="line"/>
			<point x="-135.695" y="-324.278" type="line"/>
			<point x="-235.695" y="-74.278" type="line"/>
		</contour>
	</outline>
</glyph>
<glyph name="to-27" format="2">
	<advance width="100"/>
	<outline>
		<contour>
			<point x="137.55" y="69.463" type="line"/>
			<point x="237.55" y="-200.537" type="line"/>
			<point x="-137.55" y="-339.463" type="line"/>
			<point x="-237.55" y="-69.463" type="line"/>
		</contour>
	</outline>
</glyph>
<glyph name="to-28" format="2">
	<advance width="100"/>
	<outline>
		<contour>
			<point x="138.348" y="67.267" type="line"/>
			<point x="238.348" y="-212.733" type="line"/>
			<point x="-138.348" y="-347.267" type="line"/>
			<point x="-238.348" y="-67.267" type="line"/>
		</contour>
	</outline>
</glyph>
<glyph name="to-29" format="2">
	<advance width="100"/>
	<outline>
		<contour>
			<point x="44.537" y="32.599" type="line"/>
			<point x="144.537" y="-257.401" type="line"/>
			<point x="-44.537" y="-322.599" type="line"/>
			<point x="-144.537" y="-32.599" type="line"/>
		</contour>
	</outline>
</glyph>
<glyph name="to-30" format="2">
	<advance width="100"/>
	<outline>
		<contour>
			<point x="141.634" y="63.878" type="line"/>
			<point x="241.634" y="-236.122" type="line"/>
			<point x="-141.634" y="-363.878" type="line"/>
			<point x="-241.634" y="-63.878" type="line"/>
		</contour>
	</outline>
</glyph>
<glyph name="to-31" format="2">
	<advance width="100"/>
	<outline>
		<contour>
			<point x="142.245" y="62.015" type="line"/>
			<point x="242.245" y="-247.985" type="line"/>
			<point x="-142.245" y="-372.015" type="line"/>
			<point x="-242.245" y="-62.015" type="line"/>
		</contour>
	</outline>
</glyph>
<glyph name="to-32" format="2">
	<advance width="100"/>
	<outline>
		<contour>
			<point x="142.805" y="60.252" type="line"/>
			<point x="242.805" y="-259.748" type="line"/>
			<point x="-142.805" y="-380.252" type="line"/>
			<point x="-242.805" y="-60.252" type="line"/>
		</contour>
	</outline>
</glyph>
<glyph name="to-33" format="2">
	<advance width="100"/>
	<outline>
		<contour>
			<point x="143.319" y="58.581" type="line"/>
			<point x="243.319" y="-271.419" type="line"/>
			<point x="-143.319" y="-388.581" type="line"/>
			<point x="-243.319" y="-58.581" type="line"/>
		</contour>
	</outline>
</glyph>
<glyph name="to-34" format="2">
	<advance width="100"/>
	<outline>
		<contour>
			<point x="143.792" y="56.998" type="line"/>
			<point x="243.792" y="-283.002" type="line"/>
			<point x="-143.792" y="-396.998" type="line"/>
			<point x="-243.792" y="-56.998" type="line"/>
		</contour>
	</outline>
</glyph>
<glyph name="to-35" format="2">
	<advance width="100"/>
	<outline>
		<contour>
			<point x="142.305" y="54.944" type="line"/>
			<point x="242.305" y="-295.056" type="line"/>
			<point x="-142.305" y="-404.944" type="line"/>
			<point x="-242.305" y="-54.944" type="line"/>
		</contour>
	</outline>
</glyph>
<glyph name="to-36" format="2">
	<advance width="100"/>
	<outline>
		<contour>
			<point x="142.704" y="53.529" type="line"/>
			<point x="242.704" y="-306.471" type="line"/>
			<point x="-142.704" y="-413.529" type="line"/>
			<point x="-242.704" y="-53.529" type="line"/>
		</contour>
	</outline>
</glyph>
<glyph name="to-38" format="2">
	<advance width="100"/>
	<outline>
		<contour>
			<point x="145.349" y="51.408" type="line"/>
			<point x="245.349" y="-328.592" type="line"/>
			<point x="-145.349" y="-431.408" type="line"/>
			<point x="-245.349" y="-51.408" type="line"/>
		</contour>
	</outline>
</glyph>
<glyph name="to-39" format="2">
	<advance width="100"/>
	<outline>
		<contour>
			<point x="145.67" y="50.172" type="line"/>
			<point x="245.67" y="-339.828" type="line"/>
			<point x="-145.67" y="-440.172" type="line"/>
			<point x="-245.67" y="-50.172" type="line"/>
		</contour>
	</outline>
</glyph>
<glyph name="to-4" format="2">
	<advance width="100"/>
	<outline>
		<contour>
			<point x="25.021" y="187.552" type="line"/>
			<point x="125.021" y="147.552" type="line"/>
			<point x="-25.021" y="-227.552" type="line"/>
			<point x="-125.021" y="-187.552" type="line"/>
		</contour>
	</outline>
</glyph>
<glyph name="to-40" format="2">
	<advance width="100"/>
	<outline>
		<contour>
			<point x="145.969" y="48.992" type="line"/>
			<point x="245.969" y="-351.008" type="line"/>
			<point x="-145.969" y="-448.992" type="line"/>
			<point x="-245.969" y="-48.992" type="line"/>
		</contour>
	</outline>
</glyph>
<glyph name="to-41" format="2">
	<advance width="100"/>
	<outline>
		<contour>
			<point x="47.152" y="23.696" type="line"/>
			<point x="147.152" y="-386.304" type="line"/>
			<point x="-47.152" y="-433.696" type="line"/>
			<point x="-147.152" y="-23.696" type="line"/>
		</contour>
	</outline>
</glyph>
<glyph name="to-42" format="2">
	<advance width="100"/>
	<outline>
		<contour>
			<point x="146.507" y="46.787" type="line"/>
			<point x="246.507" y="-373.213" type="line"/>
			<point x="-146.507" y="-466.787" type="line"/>
			<point x="-246.507" y="-46.787" type="line"/>
		</contour>
	</outline>
</glyph>
<glyph name="to-44" format="2">
	<advance width="100"/>
	<outline>
		<contour>
			<point x="47.513" y="22.162" type="line"/>
			<point x="147.513" y="-417.838" type="line"/>
			<point x="-47.513" y="-462.162" type="line"/>
			<point x="-147.513" y="-22.162" type="line"/>
		</contour>
	</outline>
</glyph>
<glyph name="to-45" format="2">
	<advance width="100"/>
	<outline>
		<contour>
			<point x="147.19" y="43.82" type="line"/>
			<point x="247.19" y="-406.18" type="line"/>
			<point x="-147.19" y="-493.82" type="line"/>
			<point x="-247.19" y="-43.82" type="line"/>
		</contour>
	</outline>
</glyph>
<glyph name="to-46" format="2">
	<advance width="100"/>
	<outline>
		<contour>
			<point x="147.39" y="42.911" type="line"/>
			<point x="247.39" y="-417.089" type="line"/>
			<point x="-147.39" y="-502.911" type="line"/>
			<point x="-247.39" y="-42.911" type="line"/>
		</contour>
	</outline>
</glyph>
<glyph name="to-47" format="2">
	<advance width="100"/>
	<outline>
		<contour>
			<point x="147.577" y="42.038" type="line"/>
			<point x="247.577" y="-427.962" type="line"/>
			<point x="-147.577" y="-512.038" type="line"/>
			<point x="-247.577" y="-42.038" type="line"/>
		</contour>
	</outline>
</glyph>
<glyph name="to-49" format="2">
	<advance width="100"/>
	<outline>
		<contour>
			<point x="47.98" y="19.996" type="line"/>
			<point x="147.98" y="-470.004" type="line"/>
			<point x="-47.98" y="-509.996" type="line"/>
			<point x="-147.98" y="-19.996" type="line"/>
		</contour>
	</outline>
</glyph>
<glyph name="to-5" format="2">
	<advance width="100"/>
	<outline>
		<contour>
			<point x="39.443" y="178.885" type="line"/>
			<point x="139.443" y="128.885" type="line"/>
			<point x="-39.443" y="-228.885" type="line"/>
			<point x="-139.443" y="-178.885" type="line"/>
		</contour>
	</outline>
</glyph>
<glyph name="to-50" format="2">
	<advance width="100"/>
	<outline>
		<contour>
			<point x="146.116" y="39.223" type="line"/>
			<point x="246.116" y="-460.777" type="line"/>
			<point x="-146.116" y="-539.223" type="line"/>
			<point x="-246.116" y="-39.223" type="line"/>
		</contour>
	</outline>
</glyph>
<glyph name="to-51" format="2">
	<advance width="100"/>
	<outline>
		<contour>
			<point x="148.225" y="38.868" type="line"/>
			<point x="248.225" y="-471.132" type="line"/>
			<point x="-148.225" y="-548.868" type="line"/>
			<point x="-248.225" y="-38.868" type="line"/>
		</contour>
	</outline>
</glyph>
<glyph name="to-54" format="2">
	<advance width="100"/>
	<outline>
		<contour>
			<point x="148.623" y="36.782" type="line"/>
			<point x="248.623" y="-503.218" type="line"/>
			<point x="-148.623" y="-576.782" type="line"/>
			<point x="-248.623" y="-36.782" type="line"/>
		</contour>
	</outline>
</glyph>
<glyph name="to-55" format="2">
	<advance width="100"/>
	<outline>
		<contour>
			<point x="146.774" y="35.777" type="line"/>
			<point x="246.774" y="-514.223" type="line"/>
			<point x="-146.774" y="-585.777" type="line"/>
			<point x="-246.774" y="-35.777" type="line"/>
		</contour>
	</outline>
</glyph>
<glyph name="to-56" format="2">
	<advance width="100"/>
	<outline>
		<contour>
			<point x="148.854" y="35.51" type="line"/>
			<point x="248.854" y="-524.49" type="line"/>
			<point x="-148.854" y="-595.51" type="line"/>
			<point x="-248.854" y="-35.51" type="line"/>
		</contour>
	</outline>
</glyph>
<glyph name="to-57" format="2">
	<advance width="100"/>
	<outline>
		<contour>
			<point x="146.991" y="34.56" type="line"/>
			<point x="246.991" y="-535.44" type="line"/>
			<point x="-146.991" y="-604.56" type="line"/>
			<point x="-246.991" y="-34.56" type="line"/>
		</contour>
	</outline>
</glyph>
<glyph name="to-58" format="2">
	<advance width="100"/>
	<outline>
		<contour>
			<point x="149.063" y="34.321" type="line"/>
			<point x="249.063" y="-545.679" type="line"/>
			<point x="-149.063" y="-614.321" type="line"/>
			<point x="-249.063" y="-34.321" type="line"/>
		</contour>
	</outline>
</glyph>
<glyph name="to-6" format="2">
	<advance width="100"/>
	<outline>
		<contour>
			<point x="52.899" y="171.499" type="line"/>
			<point x="152.899" y="111.499" type="line"/>
			<point x="-52.899" y="-231.499" type="line"/>
			<point x="-152.899" y="-171.499" type="line"/>
		</contour>
	</outline>
</glyph>
<glyph name="to-60" format="2">
	<advance width="100"/>
	<outline>
		<contour>
			<point x="147.279" y="32.88" type="line"/>
			<point x="247.279" y="-567.12" type="line"/>
			<point x="-147.279" y="-632.88" type="line"/>
			<point x="-247.279" y="-32.88" type="line"/>
		</contour>
	</outline>
</glyph>
<glyph name="to-62" format="2">
	<advance width="100"/>
	<outline>
		<contour>
			<point x="147.448" y="31.846" type="line"/>
			<point x="247.448" y="-588.154" type="line"/>
			<point x="-147.448" y="-651.846" type="line"/>
			<point x="-247.448" y="-31.846" type="line"/>
		</contour>
	</outline>
</glyph>
<glyph name="to-63" format="2">
	<advance width="100"/>
	<outline>
		<contour>
			<point x="147.527" y="31.354" type="line"/>
			<point x="247.527" y="-598.646" type="line"/>
			<point x="-147.527" y="-661.354" type="line"/>
			<point x="-247.527" y="-31.354" type="line"/>
		</contour>
	</outline>
</glyph>
<glyph name="to-64" format="2">
	<advance width="100"/>
	<outline>
		<contour>
			<point x="48.801" y="15.438" type="line"/>
			<point x="148.801" y="-624.562" type="line"/>
			<point x="-48.801" y="-655.438" type="line"/>
			<point x="-148.801" y="-15.438" type="line"/>
		</contour>
	</outline>
</glyph>
<glyph name="to-66" format="2">
	<advance width="100"/>
	<outline>
		<contour>
			<point x="149.721" y="30.261" type="line"/>
			<point x="249.721" y="-629.739" type="line"/>
			<point x="-149.721" y="-690.261" type="line"/>
			<point x="-249.721" y="-30.261" type="line"/>
		</contour>
	</outline>
</glyph>
<glyph name="to-67" format="2">
	<advance width="100"/>
	<outline>
		<contour>
			<point x="147.809" y="29.524" type="line"/>
			<point x="247.809" y="-640.476" type="line"/>
			<point x="-147.809" y="-699.524" type="line"/>
			<point x="-247.809" y="-29.524" type="line"/>
		</contour>
	</outline>
</glyph>
<glyph name="to-68" format="2">
	<advance width="100"/>
	<outline>
		<contour>
			<point x="147.872" y="29.099" type="line"/>
			<point x="247.872" y="-650.901" type="line"/>
			<point x="-147.872" y="-709.099" type="line"/>
			<point x="-247.872" y="-29.099" type="line"/>
		</contour>
	</outline>
</glyph>
<glyph name="to-70" format="2">
	<advance width="100"/>
	<outline>
		<contour>
			<point x="147.99" y="28.284" type="line"/>
			<point x="247.99" y="-671.716" type="line"/>
			<point x="-147.99" y="-728.284" type="line"/>
			<point x="-247.99" y="-28.284" type="line"/>
		</contour>
	</outline>
</glyph>
<glyph name="to-72" format="2">
	<advance width="100"/>
	<outline>
		<contour>
			<point x="49.049" y="13.757" type="line"/>
			<point x="149.049" y="-706.243" type="line"/>
			<point x="-49.049" y="-733.757" type="line"/>
			<point x="-149.049" y="-13.757" type="line"/>
		</contour>
	</outline>
</glyph>
<glyph name="to-74" format="2">
	<advance width="100"/>
	<outline>
		<contour>
			<point x="148.198" y="26.784" type="line"/>
			<point x="248.198" y="-713.216" type="line"/>
			<point x="-148.198" y="-766.784" type="line"/>
			<point x="-248.198" y="-26.784" type="line"/>
		</contour>
	</outline>
</glyph>
<glyph name="to-75" format="2">
	<advance width="100"/>
	<outline>
		<contour>
			<point x="148.246" y="26.433" type="line"/>
			<point x="248.246" y="-723.567" type="line"/>
			<point x="-148.246" y="-776.433" type="line"/>
			<point x="-248.246" y="-26.433" type="line"/>
		</contour>
	</outline>
</glyph>
<glyph name="to-76" format="2">
	<advance width="100"/>
	<outline>
		<contour>
			<point x="148.291" y="26.091" type="line"/>
			<point x="248.291" y="-733.909" type="line"/>
			<point x="-148.291" y="-786.091" type="line"/>
			<point x="-248.291" y="-26.091" type="line"/>
		</contour>
	</outline>
</glyph>
<glyph name="to-77" format="2">
	<advance width="100"/>
	<outline>
		<contour>
			<point x="148.334" y="25.758" type="line"/>
			<point x="248.334" y="-744.242" type="line"/>
			<point x="-148.334" y="-795.758" type="line"/>
			<point x="-248.334" y="-25.758" type="line"/>
		</contour>
	</outline>
</glyph>
<glyph name="to-78" format="2">
	<advance width="100"/>
	<outline>
		<contour>
			<point x="49.188" y="12.716" type="line"/>
			<point x="149.188" y="-767.284" type="line"/>
			<point x="-49.188" y="-792.716" type="line"/>
			<point x="-149.188" y="-12.716" type="line"/>
		</contour>
	</outline>
</glyph>
<glyph name="to-79" format="2">
	<advance width="100"/>
	<outline>
		<contour>
			<point x="148.417" y="25.116" type="line"/>
			<point x="248.417" y="-764.884" type="line"/>
			<point x="-148.417" y="-815.116" type="line"/>
			<point x="-248.417" y="-25.116" type="line"/>
		</contour>
	</outline>
</glyph>
<glyph name="to-8" format="2">
	<advance width="100"/>
	<outline>
		<contour>
			<point x="74.939" y="156.174" type="line"/>
			<point x="174.939" y="76.174" type="line"/>
			<point x="-74.939" y="-236.174" type="line"/>
			<point x="-174.939" y="-156.174" type="line"/>
		</contour>
	</outline>
</glyph>
<glyph name="to-83" format="2">
	<advance width="100"/>
	<outline>
		<contour>
			<point x="148.564" y="23.923" type="line"/>
			<point x="248.564" y="-806.077" type="line"/>
			<point x="-148.564" y="-853.923" type="line"/>
			<point x="-248.564" y="-23.923" type="line"/>
		</contour>
	</outline>
</glyph>
<glyph name="to-84" format="2">
	<advance width="100"/>
	<outline>
		<contour>
			<point x="148.598" y="23.643" type="line"/>
			<point x="248.598" y="-816.357" type="line"/>
			<point x="-148.598" y="-863.643" type="line"/>
			<point x="-248.598" y="-23.643" type="line"/>
		</contour>
	</outline>
</glyph>
<glyph name="to-85" format="2">
	<advance width="100"/>
	<outline>
		<contour>
			<point x="150.616" y="23.602" type="line"/>
			<point x="250.616" y="-826.398" type="line"/>
			<point x="-150.616" y="-873.602" type="line"/>
			<point x="-250.616" y="-23.602" type="line"/>
		</contour>
	</outline>
</glyph>
<glyph name="to-86" format="2">
	<advance width="100"/>
	<outline>
		<contour>
			<point x="148.661" y="23.1" type="line"/>
			<point x="248.661" y="-836.9" type="line"/>
			<point x="-148.661" y="-883.1" type="line"/>
			<point x="-248.661" y="-23.1" type="line"/>
		</contour>
	</outline>
</glyph>
<glyph name="to-87" format="2">
	<advance width="100"/>
	<outline>
		<contour>
			<point x="49.346" y="11.419" type="line"/>
			<point x="149.346" y="-858.581" type="line"/>
			<point x="-49.346" y="-881.419" type="line"/>
			<point x="-149.346" y="-11.419" type="line"/>
		</contour>
	</outline>
</glyph>
<glyph name="to-88" format="2">
	<advance width="100"/>
	<outline>
		<contour>
			<point x="148.721" y="22.582" type="line"/>
			<point x="248.721" y="-857.418" type="line"/>
			<point x="-148.721" y="-902.582" type="line"/>
			<point x="-248.721" y="-22.582" type="line"/>
		</contour>
	</outline>
</glyph>
<glyph name="to-89" format="2">
	<advance width="100"/>
	<outline>
		<contour>
			<point x="150.737" y="22.555" type="line"/>
			<point x="250.737" y="-867.445" type="line"/>
			<point x="-150.737" y="-912.555" type="line"/>
			<point x="-250.737" y="-22.555" type="line"/>
		</contour>
	</outline>
</glyph>
<glyph name="to-9" format="2">
	<advance width="100"/>
	<outline>
		<contour>
			<point x="16.896" y="74.329" type="line"/>
			<point x="116.896" y="-15.671" type="line"/>
			<point x="-16.896" y="-164.329" type="line"/>
			<point x="-116.896" y="-74.329" type="line"/>
		</contour>
	</outline>
</glyph>
<glyph name="to-90" format="2">
	<advance width="100"/>
	<outline>
		<contour>
			<point x="150.765" y="22.307" type="line"/>
			<point x="250.765" y="-877.693" type="line"/>
			<point x="-150.765" y="-922.307" type="line"/>
			<point x="-250.765" y="-22.307" type="line"/>
		</contour>
	</outline>
</glyph>
<glyph name="to-91" format="2">
	<advance width="100"/>
	<outline>
		<contour>
			<point x="148.803" y="21.847" type="line"/>
			<point x="248.803" y="-888.153" type="line"/>
			<point x="-148.803" y="-931.847" type="line"/>
			<point x="-248.803" y="-21.847" type="line"/>
		</contour>
	</outline>
</glyph>
<glyph name="to-92" format="2">
	<advance width="100"/>
	<outline>
		<contour>
			<point x="150.817" y="21.828" type="line"/>
			<point x="250.817" y="-898.172" type="line"/>
			<point x="-150.817" y="-941.828" type="line"/>
			<point x="-250.817" y="-21.828" type="line"/>
		</contour>
	</outline>
</glyph>
<glyph name="to-93" format="2">
	<advance width="100"/>
	<outline>
		<contour>
			<point x="148.854" y="21.382" type="line"/>
			<point x="248.854" y="-908.618" type="line"/>
			<point x="-148.854" y="-951.382" type="line"/>
			<point x="-248.854" y="-21.382" type="line"/>
		</contour>
	</outline>
</glyph>
<glyph name="to-95" format="2">
	<advance width="100"/>
	<outline>
		<contour>
			<point x="150.89" y="21.146" type="line"/>
			<point x="250.89" y="-928.854" type="line"/>
			<point x="-150.89" y="-971.146" type="line"/>
			<point x="-250.89" y="-21.146" type="line"/>
		</contour>
	</outline>
</glyph>
<glyph name="to-96" format="2">
	<advance width="100"/>
	<outline>
		<contour>
			<point x="148.924" y="20.721" type="line"/>
			<point x="248.924" y="-939.279" type="line"/>
			<point x="-148.924" y="-980.721" type="line"/>
			<point x="-248.924" y="-20.721" type="line"/>
		</contour>
	</outline>
</glyph>
<glyph name="to-97" format="2">
	<advance width="100"/>
	<outline>
		<contour>
			<point x="148.946" y="20.51" type="line"/>
			<point x="248.946" y="-949.49" type="line"/>
			<point x="-148.946" y="-990.51" type="line"/>
			<point x="-248.946" y="-20.51" type="line"/>
		</contour>
	</outline>
</glyph>
<glyph name="to-99" format="2">
	<advance width="100"/>
	<outline>
		<contour>
			<point x="49.494" y="10.05" type="line"/>
			<point x="149.494" y="-979.95" type="line"/>
			<point x="-49.494" y="-1000.05" type="line"/>
			<point x="-149.494" y="-10.05" type="line"/>
		</contour>
	</outline>
</glyph>
<glyph name="to0" format="2">
	<advance width="100"/>
	<outline>
		<contour>
			<point x="-50" y="200" type="line"/>
			<point x="50" y="200" type="line"/>
			<point x="50" y="-200" type="line"/>
			<point x="-50" y="-200" type="line"/>
		</contour>
	</outline>
</glyph>
<glyph name="to1" format="2">
	<advance width="100"/>
	<outline>
		<contour>
			<point x="-59.95" y="99.504" type="line"/>
			<point x="40.05" y="109.504" type="line"/>
			<point x="59.95" y="-89.504" type="line"/>
			<point x="-40.05" y="-99.504" type="line"/>
		</contour>
	</outline>
</glyph>
<glyph name="to10" format="2">
	<advance width="100"/>
	<outline>
		<contour>
			<point x="-192.836" y="142.836" type="line"/>
			<point x="-92.836" y="242.836" type="line"/>
			<point x="192.836" y="-42.836" type="line"/>
			<point x="92.836" y="-142.836" type="line"/>
		</contour>
	</outline>
</glyph>
<glyph name="to100" format="2">
	<advance width="100"/>
	<outline>
		<contour>
			<point x="-249.007" y="19.901" type="line"/>
			<point x="-149.007" y="1019.901" type="line"/>
			<point x="249.007" y="980.099" type="line"/>
			<point x="149.007" y="-19.901" type="line"/>
		</contour>
	</outline>
</glyph>
<glyph name="to101" format="2">
	<advance width="100"/>
	<outline>
		<contour>
			<point x="-249.027" y="19.706" type="line"/>
			<point x="-149.027" y="1029.706" type="line"/>
			<point x="249.027" y="990.294" type="line"/>
			<point x="149.027" y="-19.706" type="line"/>
		</contour>
	</outline>
</glyph>
<glyph name="to103" format="2">
	<advance width="100"/>
	<outline>
		<contour>
			<point x="-249.064" y="19.327" type="line"/>
			<point x="-149.064" y="1049.327" type="line"/>
			<point x="249.064" y="1010.673" type="line"/>
			<point x="149.064" y="-19.327" type="line"/>
		</contour>
	</outline>
</glyph>
<glyph name="to105" format="2">
	<advance width="100"/>
	<outline>
		<contour>
			<point x="-249.099" y="18.962" type="line"/>
			<point x="-149.099" y="1068.962" type="line"/>
			<point x="249.099" y="1031.038" type="line"/>
			<point x="149.099" y="-18.962" type="line"/>
		</contour>
	</outline>
</glyph>
<glyph name="to106" format="2">
	<advance width="100"/>
	<outline>
		<contour>
			<point x="-249.116" y="18.785" type="line"/>
			<point x="-149.116" y="1078.785" type="line"/>
			<point x="249.116" y="1041.215" type="line"/>
			<point x="149.116" y="-18.785" type="line"/>
		</contour>
	</outline>
</glyph>
<glyph name="to107" format="2">
	<advance width="100"/>
	<outline>
		<contour>
			<point x="-249.132" y="18.61" type="line"/>
			<point x="-149.132" y="1088.61" type="line"/>
			<point x="249.132" y="1051.39" type="line"/>
			<point x="149.132" y="-18.61" type="line"/>
		</contour>
	</outline>
</glyph>
<glyph name="to108" format="2">
	<advance width="100"/>
	<outline>
		<contour>
			<point x="-249.148" y="18.44" type="line"/>
			<point x="-149.148" y="1098.44" type="line"/>
			<point x="249.148" y="1061.56" type="line"/>
			<point x="149.148" y="-18.44" type="line"/>
		</contour>
	</outline>
</glyph>
<glyph name="to11" format="2">
	<advance width="100"/>
	<outline>
		<contour>
			<point x="-197.988" y="134.535" type="line"/>
			<point x="-97.988" y="244.535" type="line"/>
			<point x="197.988" y="-24.535" type="line"/>
			<point x="97.988" y="-134.535" type="line"/>
		</contour>
	</outline>
</glyph>
<glyph name="to112" format="2">
	<advance width="100"/>
	<outline>
		<contour>
			<point x="-251.2" y="17.964" type="line"/>
			<point x="-151.2" y="1137.964" type="line"/>
			<point x="251.2" y="1102.036" type="line"/>
			<point x="151.2" y="-17.964" type="line"/>
		</contour>
	</outline>
</glyph>
<glyph name="to114" format="2">
	<advance width="100"/>
	<outline>
		<contour>
			<point x="-251.227" y="17.652" type="line"/>
			<point x="-151.227" y="1157.652" type="line"/>
			<point x="251.227" y="1122.348" type="line"/>
			<point x="151.227" y="-17.652" type="line"/>
		</contour>
	</outline>
</glyph>
<glyph name="to115" format="2">
	<advance width="100"/>
	<outline>
		<contour>
			<point x="-251.241" y="17.499" type="line"/>
			<point x="-151.241" y="1167.499" type="line"/>
			<point x="251.241" y="1132.501" type="line"/>
			<point x="151.241" y="-17.499" type="line"/>
		</contour>
	</outline>
</glyph>
<glyph name="to117" format="2">
	<advance width="100"/>
	<outline>
		<contour>
			<point x="-249.273" y="17.032" type="line"/>
			<point x="-149.273" y="1187.032" type="line"/>
			<point x="249.273" y="1152.968" type="line"/>
			<point x="149.273" y="-17.032" type="line"/>
		</contour>
	</outline>
</glyph>
<glyph name="to118" format="2">
	<advance width="100"/>
	<outline>
		<contour>
			<point x="-249.286" y="16.889" type="line"/>
			<point x="-149.286" y="1196.889" type="line"/>
			<point x="249.286" y="1163.111" type="line"/>
			<point x="149.286" y="-16.889" type="line"/>
		</contour>
	</outline>
</glyph>
<glyph name="to119" format="2">
	<advance width="100"/>
	<outline>
		<contour>
			<point x="-249.298" y="16.748" type="line"/>
			<point x="-149.298" y="1206.748" type="line"/>
			<point x="249.298" y="1173.252" type="line"/>
			<point x="149.298" y="-16.748" type="line"/>
		</contour>
	</outline>
</glyph>
<glyph name="to12" format="2">
	<advance width="100"/>
	<outline>
		<contour>
			<point x="-203.644" y="128.037" type="line"/>
			<point x="-103.644" y="248.037" type="line"/>
			<point x="203.644" y="-8.037" type="line"/>
			<point x="103.644" y="-128.037" type="line"/>
		</contour>
	</outline>
</glyph>
<glyph name="to120" format="2">
	<advance width="100"/>
	<outline>
		<contour>
			<point x="-251.302" y="16.775" type="line"/>
			<point x="-151.302" y="1216.775" type="line"/>
			<point x="251.302" y="1183.225" type="line"/>
			<point x="151.302" y="-16.775" type="line"/>
		</contour>
	</outline>
</glyph>
<glyph name="to121" format="2">
	<advance width="100"/>
	<outline>
		<contour>
			<point x="-249.32" y="16.473" type="line"/>
			<point x="-149.32" y="1226.473" type="line"/>
			<point x="249.32" y="1193.527" type="line"/>
			<point x="149.32" y="-16.473" type="line"/>
		</contour>
	</outline>
</glyph>
<glyph name="to122" format="2">
	<advance width="100"/>
	<outline>
		<contour>
			<point x="-251.325" y="16.502" type="line"/>
			<point x="-151.325" y="1236.502" type="line"/>
			<point x="251.325" y="1203.498" type="line"/>
			<point x="151.325" y="-16.502" type="line"/>
		</contour>
	</outline>
</glyph>
<glyph name="to123" format="2">
	<advance width="100"/>
	<outline>
		<contour>
			<point x="-251.336" y="16.369" type="line"/>
			<point x="-151.336" y="1246.369" type="line"/>
			<point x="251.336" y="1213.631" type="line"/>
			<point x="151.336" y="-16.369" type="line"/>
		</contour>
	</outline>
</glyph>
<glyph name="to124" format="2">
	<advance width="100"/>
	<outline>
		<contour>
			<point x="-251.346" y="16.238" type="line"/>
			<point x="-151.346" y="1256.238" type="line"/>
			<point x="251.346" y="1223.762" type="line"/>
			<point x="151.346" y="-16.238" type="line"/>
		</contour>
	</outline>
</glyph>
<glyph name="to125" format="2">
	<advance width="100"/>
	<outline>
		<contour>
			<point x="-249.363" y="15.949" type="line"/>
			<point x="-149.363" y="1265.949" type="line"/>
			<point x="249.363" y="1234.051" type="line"/>
			<point x="149.363" y="-15.949" type="line"/>
		</contour>
	</outline>
</glyph>
<glyph name="to126" format="2">
	<advance width="100"/>
	<outline>
		<contour>
			<point x="-251.367" y="15.981" type="line"/>
			<point x="-151.367" y="1275.981" type="line"/>
			<point x="251.367" y="1244.019" type="line"/>
			<point x="151.367" y="-15.981" type="line"/>
		</contour>
	</outline>
</glyph>
<glyph name="to14" format="2">
	<advance width="100"/>
	<outline>
		<contour>
			<point x="-212.747" y="116.248" type="line"/>
			<point x="-112.747" y="256.248" type="line"/>
			<point x="212.747" y="23.752" type="line"/>
			<point x="112.747" y="-116.248" type="line"/>
		</contour>
	</outline>
</glyph>
<glyph name="to15" format="2">
	<advance width="100"/>
	<outline>
		<contour>
			<point x="-216.41" y="110.94" type="line"/>
			<point x="-116.41" y="260.94" type="line"/>
			<point x="216.41" y="39.06" type="line"/>
			<point x="116.41" y="-110.94" type="line"/>
		</contour>
	</outline>
</glyph>
<glyph name="to16" format="2">
	<advance width="100"/>
	<outline>
		<contour>
			<point x="-134.8" y="52" type="line"/>
			<point x="-34.8" y="212" type="line"/>
			<point x="134.8" y="107" type="line"/>
			<point x="34.8" y="-52" type="line"/>
		</contour>
	</outline>
</glyph>
<glyph name="to18" format="2">
	<advance width="100"/>
	<outline>
		<contour>
			<point x="-226.58" y="98.1" type="line"/>
			<point x="-126.58" y="278.1" type="line"/>
			<point x="226.58" y="81.9" type="line"/>
			<point x="126.58" y="-98.1" type="line"/>
		</contour>
	</outline>
</glyph>
<glyph name="to19" format="2">
	<advance width="100"/>
	<outline>
		<contour>
			<point x="-138.492" y="46.575" type="line"/>
			<point x="-38.492" y="236.575" type="line"/>
			<point x="138.492" y="143.425" type="line"/>
			<point x="38.492" y="-46.575" type="line"/>
		</contour>
	</outline>
</glyph>
<glyph name="to2" format="2">
	<advance width="100"/>
	<outline>
		<contour>
			<point x="-89.223" y="196.116" type="line"/>
			<point x="10.777" y="216.116" type="line"/>
			<point x="89.223" y="-176.116" type="line"/>
			<point x="-10.777" y="-196.116" type="line"/>
		</contour>
	</outline>
</glyph>
<glyph name="to20" format="2">
	<advance width="100"/>
	<outline>
		<contour>
			<point x="-230.674" y="90.337" type="line"/>
			<point x="-130.674" y="290.337" type="line"/>
			<point x="230.674" y="109.663" type="line"/>
			<point x="130.674" y="-90.337" type="line"/>
		</contour>
	</outline>
</glyph>
<glyph name="to21" format="2">
	<advance width="100"/>
	<outline>
		<contour>
			<point x="-140.286" y="42.993" type="line"/>
			<point x="-40.286" y="252.993" type="line"/>
			<point x="140.286" y="167.007" type="line"/>
			<point x="40.286" y="-42.993" type="line"/>
		</contour>
	</outline>
</glyph>
<glyph name="to22" format="2">
	<advance width="100"/>
	<outline>
		<contour>
			<point x="-233.894" y="83.588" type="line"/>
			<point x="-133.894" y="303.588" type="line"/>
			<point x="233.894" y="136.412" type="line"/>
			<point x="133.894" y="-83.588" type="line"/>
		</contour>
	</outline>
</glyph>
<glyph name="to23" format="2">
	<advance width="100"/>
	<outline>
		<contour>
			<point x="-141.707" y="39.873" type="line"/>
			<point x="-41.707" y="269.873" type="line"/>
			<point x="141.707" y="190.127" type="line"/>
			<point x="41.707" y="-39.873" type="line"/>
		</contour>
	</outline>
</glyph>
<glyph name="to24" format="2">
	<advance width="100"/>
	<outline>
		<contour>
			<point x="-234.615" y="76.923" type="line"/>
			<point x="-134.615" y="316.923" type="line"/>
			<point x="234.615" y="163.077" type="line"/>
			<point x="134.615" y="-76.923" type="line"/>
		</contour>
	</outline>
</glyph>
<glyph name="to26" format="2">
	<advance width="100"/>
	<outline>
		<contour>
			<point x="-236.669" y="71.796" type="line"/>
			<point x="-136.669" y="331.796" type="line"/>
			<point x="236.669" y="188.204" type="line"/>
			<point x="136.669" y="-71.796" type="line"/>
		</contour>
	</outline>
</glyph>
<glyph name="to27" format="2">
	<advance width="100"/>
	<outline>
		<contour>
			<point x="-239.425" y="70.157" type="line"/>
			<point x="-139.425" y="340.157" type="line"/>
			<point x="239.425" y="199.843" type="line"/>
			<point x="139.425" y="-70.157" type="line"/>
		</contour>
	</outline>
</glyph>
<glyph name="to28" format="2">
	<advance width="100"/>
	<outline>
		<contour>
			<point x="-240.232" y="67.94" type="line"/>
			<point x="-140.232" y="347.94" type="line"/>
			<point x="240.232" y="212.06" type="line"/>
			<point x="140.232" y="-67.94" type="line"/>
		</contour>
	</outline>
</glyph>
<glyph name="to29" format="2">
	<advance width="100"/>
	<outline>
		<contour>
			<point x="-239.075" y="65.198" type="line"/>
			<point x="-139.075" y="355.198" type="line"/>
			<point x="239.075" y="224.802" type="line"/>
			<point x="139.075" y="-65.198" type="line"/>
		</contour>
	</outline>
</glyph>
<glyph name="to3" format="2">
	<advance width="100"/>
	<outline>
		<contour>
			<point x="-107.47" y="191.565" type="line"/>
			<point x="-7.47" y="221.565" type="line"/>
			<point x="107.47" y="-161.565" type="line"/>
			<point x="7.47" y="-191.565" type="line"/>
		</contour>
	</outline>
</glyph>
<glyph name="to30" format="2">
	<advance width="100"/>
	<outline>
		<contour>
			<point x="-144.868" y="31.623" type="line"/>
			<point x="-44.868" y="331.623" type="line"/>
			<point x="144.868" y="268.377" type="line"/>
			<point x="44.868" y="-31.623" type="line"/>
		</contour>
	</outline>
</glyph>
<glyph name="to31" format="2">
	<advance width="100"/>
	<outline>
		<contour>
			<point x="-240.342" y="61.401" type="line"/>
			<point x="-140.342" y="371.401" type="line"/>
			<point x="240.342" y="248.599" type="line"/>
			<point x="140.342" y="-61.401" type="line"/>
		</contour>
	</outline>
</glyph>
<glyph name="to32" format="2">
	<advance width="100"/>
	<outline>
		<contour>
			<point x="-240.896" y="59.655" type="line"/>
			<point x="-140.896" y="379.655" type="line"/>
			<point x="240.896" y="260.345" type="line"/>
			<point x="140.896" y="-59.655" type="line"/>
		</contour>
	</outline>
</glyph>
<glyph name="to34" format="2">
	<advance width="100"/>
	<outline>
		<contour>
			<point x="-241.873" y="56.433" type="line"/>
			<point x="-141.873" y="396.433" type="line"/>
			<point x="241.873" y="283.567" type="line"/>
			<point x="141.873" y="-56.433" type="line"/>
		</contour>
	</outline>
</glyph>
<glyph name="to36" format="2">
	<advance width="100"/>
	<outline>
		<contour>
			<point x="-244.631" y="54.064" type="line"/>
			<point x="-144.631" y="414.064" type="line"/>
			<point x="244.631" y="305.936" type="line"/>
			<point x="144.631" y="-54.064" type="line"/>
		</contour>
	</outline>
</glyph>
<glyph name="to37" format="2">
	<advance width="100"/>
	<outline>
		<contour>
			<point x="-243.073" y="52.182" type="line"/>
			<point x="-143.073" y="422.182" type="line"/>
			<point x="243.073" y="317.818" type="line"/>
			<point x="143.073" y="-52.182" type="line"/>
		</contour>
	</outline>
</glyph>
<glyph name="to38" format="2">
	<advance width="100"/>
	<outline>
		<contour>
			<point x="-146.707" y="25.449" type="line"/>
			<point x="-46.707" y="405.449" type="line"/>
			<point x="146.707" y="354.551" type="line"/>
			<point x="46.707" y="-25.449" type="line"/>
		</contour>
	</outline>
</glyph>
<glyph name="to4" format="2">
	<advance width="100"/>
	<outline>
		<contour>
			<point x="-87.139" y="92.848" type="line"/>
			<point x="12.861" y="132.848" type="line"/>
			<point x="87.139" y="-52.848" type="line"/>
			<point x="-12.861" y="-92.848" type="line"/>
		</contour>
	</outline>
</glyph>
<glyph name="to40" format="2">
	<advance width="100"/>
	<outline>
		<contour>
			<point x="-147.014" y="24.254" type="line"/>
			<point x="-47.014" y="424.254" type="line"/>
			<point x="147.014" y="375.746" type="line"/>
			<point x="47.014" y="-24.254" type="line"/>
		</contour>
	</outline>
</glyph>
<glyph name="to41" format="2">
	<advance width="100"/>
	<outline>
		<contour>
			<point x="-244.304" y="47.391" type="line"/>
			<point x="-144.304" y="457.391" type="line"/>
			<point x="244.304" y="362.609" type="line"/>
			<point x="144.304" y="-47.391" type="line"/>
		</contour>
	</outline>
</glyph>
<glyph name="to42" format="2">
	<advance width="100"/>
	<outline>
		<contour>
			<point x="-244.561" y="46.324" type="line"/>
			<point x="-144.561" y="466.324" type="line"/>
			<point x="244.561" y="373.676" type="line"/>
			<point x="144.561" y="-46.324" type="line"/>
		</contour>
	</outline>
</glyph>
<glyph name="to43" format="2">
	<advance width="100"/>
	<outline>
		<contour>
			<point x="-244.802" y="45.303" type="line"/>
			<point x="-144.802" y="475.303" type="line"/>
			<point x="244.802" y="384.697" type="line"/>
			<point x="144.802" y="-45.303" type="line"/>
		</contour>
	</outline>
</glyph>
<glyph name="to44" format="2">
	<advance width="100"/>
	<outline>
		<contour>
			<point x="-246.977" y="44.767" type="line"/>
			<point x="-146.977" y="484.767" type="line"/>
			<point x="246.977" y="395.233" type="line"/>
			<point x="146.977" y="-44.767" type="line"/>
		</contour>
	</outline>
</glyph>
<glyph name="to45" format="2">
	<advance width="100"/>
	<outline>
		<contour>
			<point x="-245.237" y="43.386" type="line"/>
			<point x="-145.237" y="493.386" type="line"/>
			<point x="245.237" y="406.614" type="line"/>
			<point x="145.237" y="-43.386" type="line"/>
		</contour>
	</outline>
</glyph>
<glyph name="to46" format="2">
	<advance width="100"/>
	<outline>
		<contour>
			<point x="-245.435" y="42.486" type="line"/>
			<point x="-145.435" y="502.486" type="line"/>
			<point x="245.435" y="417.514" type="line"/>
			<point x="145.435" y="-42.486" type="line"/>
		</contour>
	</outline>
</glyph>
<glyph name="to47" format="2">
	<advance width="100"/>
	<outline>
		<contour>
			<point x="-147.811" y="20.811" type="line"/>
			<point x="-47.811" y="490.811" type="line"/>
			<point x="147.811" y="449.189" type="line"/>
			<point x="47.811" y="-20.811" type="line"/>
		</contour>
	</outline>
</glyph>
<glyph name="to48" format="2">
	<advance width="100"/>
	<outline>
		<contour>
			<point x="-247.754" y="41.199" type="line"/>
			<point x="-147.754" y="521.199" type="line"/>
			<point x="247.754" y="438.801" type="line"/>
			<point x="147.754" y="-41.199" type="line"/>
		</contour>
	</outline>
</glyph>
<glyph name="to49" format="2">
	<advance width="100"/>
	<outline>
		<contour>
			<point x="-245.961" y="39.992" type="line"/>
			<point x="-145.961" y="529.992" type="line"/>
			<point x="245.961" y="450.008" type="line"/>
			<point x="145.961" y="-39.992" type="line"/>
		</contour>
	</outline>
</glyph>
<glyph name="to50" format="2">
	<advance width="100"/>
	<outline>
		<contour>
			<point x="-248.077" y="39.615" type="line"/>
			<point x="-148.077" y="539.615" type="line"/>
			<point x="248.077" y="460.385" type="line"/>
			<point x="148.077" y="-39.615" type="line"/>
		</contour>
	</outline>
</glyph>
<glyph name="to51" format="2">
	<advance width="100"/>
	<outline>
		<contour>
			<point x="-246.263" y="38.483" type="line"/>
			<point x="-146.263" y="548.483" type="line"/>
			<point x="246.263" y="471.517" type="line"/>
			<point x="146.263" y="-38.483" type="line"/>
		</contour>
	</outline>
</glyph>
<glyph name="to52" format="2">
	<advance width="100"/>
	<outline>
		<contour>
			<point x="-248.365" y="38.147" type="line"/>
			<point x="-148.365" y="558.147" type="line"/>
			<point x="248.365" y="481.853" type="line"/>
			<point x="148.365" y="-38.147" type="line"/>
		</contour>
	</outline>
</glyph>
<glyph name="to53" format="2">
	<advance width="100"/>
	<outline>
		<contour>
			<point x="-246.532" y="37.082" type="line"/>
			<point x="-146.532" y="567.082" type="line"/>
			<point x="246.532" y="492.918" type="line"/>
			<point x="146.532" y="-37.082" type="line"/>
		</contour>
	</outline>
</glyph>
<glyph name="to54" format="2">
	<advance width="100"/>
	<outline>
		<contour>
			<point x="-246.656" y="36.418" type="line"/>
			<point x="-146.656" y="576.418" type="line"/>
			<point x="246.656" y="503.582" type="line"/>
			<point x="146.656" y="-36.418" type="line"/>
		</contour>
	</outline>
</glyph>
<glyph name="to55" format="2">
	<advance width="100"/>
	<outline>
		<contour>
			<point x="-248.742" y="36.135" type="line"/>
			<point x="-148.742" y="586.135" type="line"/>
			<point x="248.742" y="513.865" type="line"/>
			<point x="148.742" y="-36.135" type="line"/>
		</contour>
	</outline>
</glyph>
<glyph name="to56" format="2">
	<advance width="100"/>
	<outline>
		<contour>
			<point x="-148.443" y="17.579" type="line"/>
			<point x="-48.443" y="577.579" type="line"/>
			<point x="148.443" y="542.421" type="line"/>
			<point x="48.443" y="-17.579" type="line"/>
		</contour>
	</outline>
</glyph>
<glyph name="to57" format="2">
	<advance width="100"/>
	<outline>
		<contour>
			<point x="-248.961" y="34.905" type="line"/>
			<point x="-148.961" y="604.905" type="line"/>
			<point x="248.961" y="535.095" type="line"/>
			<point x="148.961" y="-34.905" type="line"/>
		</contour>
	</outline>
</glyph>
<glyph name="to58" format="2">
	<advance width="100"/>
	<outline>
		<contour>
			<point x="-249.063" y="34.321" type="line"/>
			<point x="-149.063" y="614.321" type="line"/>
			<point x="249.063" y="545.679" type="line"/>
			<point x="149.063" y="-34.321" type="line"/>
		</contour>
	</outline>
</glyph>
<glyph name="to59" format="2">
	<advance width="100"/>
	<outline>
		<contour>
			<point x="-249.16" y="33.756" type="line"/>
			<point x="-149.16" y="623.756" type="line"/>
			<point x="249.16" y="556.244" type="line"/>
			<point x="149.16" y="-33.756" type="line"/>
		</contour>
	</outline>
</glyph>
<glyph name="to6" format="2">
	<advance width="100"/>
	<outline>
		<contour>
			<point x="-153.928" y="173.214" type="line"/>
			<point x="-53.928" y="233.214" type="line"/>
			<point x="153.928" y="-113.214" type="line"/>
			<point x="53.928" y="-173.214" type="line"/>
		</contour>
	</outline>
</glyph>
<glyph name="to60" format="2">
	<advance width="100"/>
	<outline>
		<contour>
			<point x="-148.639" y="16.44" type="line"/>
			<point x="-48.639" y="616.44" type="line"/>
			<point x="148.639" y="583.56" type="line"/>
			<point x="48.639" y="-16.44" type="line"/>
		</contour>
	</outline>
</glyph>
<glyph name="to61" format="2">
	<advance width="100"/>
	<outline>
		<contour>
			<point x="-249.339" y="32.679" type="line"/>
			<point x="-149.339" y="642.679" type="line"/>
			<point x="249.339" y="577.321" type="line"/>
			<point x="149.339" y="-32.679" type="line"/>
		</contour>
	</outline>
</glyph>
<glyph name="to62" format="2">
	<advance width="100"/>
	<outline>
		<contour>
			<point x="-249.423" y="32.165" type="line"/>
			<point x="-149.423" y="652.165" type="line"/>
			<point x="249.423" y="587.835" type="line"/>
			<point x="149.423" y="-32.165" type="line"/>
		</contour>
	</outline>
</glyph>
<glyph name="to63" format="2">
	<advance width="100"/>
	<outline>
		<contour>
			<point x="-249.502" y="31.667" type="line"/>
			<point x="-149.502" y="661.667" type="line"/>
			<point x="249.502" y="598.333" type="line"/>
			<point x="149.502" y="-31.667" type="line"/>
		</contour>
	</outline>
</glyph>
<glyph name="to64" format="2">
	<advance width="100"/>
	<outline>
		<contour>
			<point x="-247.602" y="30.875" type="line"/>
			<point x="-147.602" y="670.875" type="line"/>
			<point x="247.602" y="609.125" type="line"/>
			<point x="147.602" y="-30.875" type="line"/>
		</contour>
	</outline>
</glyph>
<glyph name="to65" format="2">
	<advance width="100"/>
	<outline>
		<contour>
			<point x="-249.651" y="30.716" type="line"/>
			<point x="-149.651" y="680.716" type="line"/>
			<point x="249.651" y="619.284" type="line"/>
			<point x="149.651" y="-30.716" type="line"/>
		</contour>
	</outline>
</glyph>
<glyph name="to66" format="2">
	<advance width="100"/>
	<outline>
		<contour>
			<point x="-247.743" y="29.961" type="line"/>
			<point x="-147.743" y="689.961" type="line"/>
			<point x="247.743" y="630.039" type="line"/>
			<point x="147.743" y="-29.961" type="line"/>
		</contour>
	</outline>
</glyph>
<glyph name="to68" format="2">
	<advance width="100"/>
	<outline>
		<contour>
			<point x="-148.936" y="14.549" type="line"/>
			<point x="-48.936" y="694.549" type="line"/>
			<point x="148.936" y="665.451" type="line"/>
			<point x="48.936" y="-14.549" type="line"/>
		</contour>
	</outline>
</glyph>
<glyph name="to69" format="2">
	<advance width="100"/>
	<outline>
		<contour>
			<point x="-247.932" y="28.686" type="line"/>
			<point x="-147.932" y="718.686" type="line"/>
			<point x="247.932" y="661.314" type="line"/>
			<point x="147.932" y="-28.686" type="line"/>
		</contour>
	</outline>
</glyph>
<glyph name="to7" format="2">
	<advance width="100"/>
	<outline>
		<contour>
			<point x="-164.692" y="163.846" type="line"/>
			<point x="-64.692" y="233.846" type="line"/>
			<point x="164.692" y="-93.846" type="line"/>
			<point x="64.692" y="-163.846" type="line"/>
		</contour>
	</outline>
</glyph>
<glyph name="to71" format="2">
	<advance width="100"/>
	<outline>
		<contour>
			<point x="-248.045" y="27.894" type="line"/>
			<point x="-148.045" y="737.894" type="line"/>
			<point x="248.045" y="682.106" type="line"/>
			<point x="148.045" y="-27.894" type="line"/>
		</contour>
	</outline>
</glyph>
<glyph name="to72" format="2">
	<advance width="100"/>
	<outline>
		<contour>
			<point x="-250.079" y="27.789" type="line"/>
			<point x="-150.079" y="747.789" type="line"/>
			<point x="250.079" y="692.211" type="line"/>
			<point x="150.079" y="-27.789" type="line"/>
		</contour>
	</outline>
</glyph>
<glyph name="to73" format="2">
	<advance width="100"/>
	<outline>
		<contour>
			<point x="-248.149" y="27.144" type="line"/>
			<point x="-148.149" y="757.144" type="line"/>
			<point x="248.149" y="702.856" type="line"/>
			<point x="148.149" y="-27.144" type="line"/>
		</contour>
	</outline>
</glyph>
<glyph name="to74" format="2">
	<advance width="100"/>
	<outline>
		<contour>
			<point x="-250.18" y="27.051" type="line"/>
			<point x="-150.18" y="767.051" type="line"/>
			<point x="250.18" y="712.949" type="line"/>
			<point x="150.18" y="-27.051" type="line"/>
		</contour>
	</outline>
</glyph>
<glyph name="to75" format="2">
	<advance width="100"/>
	<outline>
		<contour>
			<point x="-250.228" y="26.697" type="line"/>
			<point x="-150.228" y="776.697" type="line"/>
			<point x="250.228" y="723.303" type="line"/>
			<point x="150.228" y="-26.697" type="line"/>
		</contour>
	</outline>
</glyph>
<glyph name="to76" format="2">
	<advance width="100"/>
	<outline>
		<contour>
			<point x="-250.274" y="26.352" type="line"/>
			<point x="-150.274" y="786.352" type="line"/>
			<point x="250.274" y="733.648" type="line"/>
			<point x="150.274" y="-26.352" type="line"/>
		</contour>
	</outline>
</glyph>
<glyph name="to78" format="2">
	<advance width="100"/>
	<outline>
		<contour>
			<point x="-248.376" y="25.433" type="line"/>
			<point x="-148.376" y="805.433" type="line"/>
			<point x="248.376" y="754.567" type="line"/>
			<point x="148.376" y="-25.433" type="line"/>
		</contour>
	</outline>
</glyph>
<glyph name="to79" format="2">
	<advance width="100"/>
	<outline>
		<contour>
			<point x="-250.401" y="25.367" type="line"/>
			<point x="-150.401" y="815.367" type="line"/>
			<point x="250.401" y="764.633" type="line"/>
			<point x="150.401" y="-25.367" type="line"/>
		</contour>
	</outline>
</glyph>
<glyph name="to8" format="2">
	<advance width="100"/>
	<outline>
		<contour>
			<point x="-112.47" y="78.087" type="line"/>
			<point x="-12.47" y="158.087" type="line"/>
			<point x="112.47" y="1.913" type="line"/>
			<point x="12.47" y="-78.087" type="line"/>
		</contour>
	</outline>
</glyph>
<glyph name="to80" format="2">
	<advance width="100"/>
	<outline>
		<contour>
			<point x="-248.456" y="24.807" type="line"/>
			<point x="-148.456" y="824.807" type="line"/>
			<point x="248.456" y="775.193" type="line"/>
			<point x="148.456" y="-24.807" type="line"/>
		</contour>
	</outline>
</glyph>
<glyph name="to81" format="2">
	<advance width="100"/>
	<outline>
		<contour>
			<point x="-250.478" y="24.75" type="line"/>
			<point x="-150.478" y="834.75" type="line"/>
			<point x="250.478" y="785.25" type="line"/>
			<point x="150.478" y="-24.75" type="line"/>
		</contour>
	</outline>
</glyph>
<glyph name="to82" format="2">
	<advance width="100"/>
	<outline>
		<contour>
			<point x="-250.514" y="24.453" type="line"/>
			<point x="-150.514" y="844.453" type="line"/>
			<point x="250.514" y="795.547" type="line"/>
			<point x="150.514" y="-24.453" type="line"/>
		</contour>
	</outline>
</glyph>
<glyph name="to83" format="2">
	<advance width="100"/>
	<outline>
		<contour>
			<point x="-250.55" y="24.163" type="line"/>
			<point x="-150.55" y="854.163" type="line"/>
			<point x="250.55" y="805.837" type="line"/>
			<point x="150.55" y="-24.163" type="line"/>
		</contour>
	</outline>
</glyph>
<glyph name="to84" format="2">
	<advance width="100"/>
	<outline>
		<contour>
			<point x="-250.584" y="23.879" type="line"/>
			<point x="-150.584" y="863.879" type="line"/>
			<point x="250.584" y="816.121" type="line"/>
			<point x="150.584" y="-23.879" type="line"/>
		</contour>
	</outline>
</glyph>
<glyph name="to85" format="2">
	<advance width="100"/>
	<outline>
		<contour>
			<point x="-248.63" y="23.368" type="line"/>
			<point x="-148.63" y="873.368" type="line"/>
			<point x="248.63" y="826.632" type="line"/>
			<point x="148.63" y="-23.368" type="line"/>
		</contour>
	</outline>
</glyph>
<glyph name="to87" format="2">
	<advance width="100"/>
	<outline>
		<contour>
			<point x="-248.692" y="22.838" type="line"/>
			<point x="-148.692" y="892.838" type="line"/>
			<point x="248.692" y="847.162" type="line"/>
			<point x="148.692" y="-22.838" type="line"/>
		</contour>
	</outline>
</glyph>
<glyph name="to89" format="2">
	<advance width="100"/>
	<outline>
		<contour>
			<point x="-149.375" y="11.166" type="line"/>
			<point x="-49.375" y="901.166" type="line"/>
			<point x="149.375" y="878.834" type="line"/>
			<point x="49.375" y="-11.166" type="line"/>
		</contour>
	</outline>
</glyph>
<glyph name="to9" format="2">
	<advance width="100"/>
	<outline>
		<contour>
			<point x="-185.131" y="150.145" type="line"/>
			<point x="-85.131" y="240.145" type="line"/>
			<point x="185.131" y="-60.145" type="line"/>
			<point x="85.131" y="-150.145" type="line"/>
		</contour>
	</outline>
</glyph>
<glyph name="to90" format="2">
	<advance width="100"/>
	<outline>
		<contour>
			<point x="-248.777" y="22.086" type="line"/>
			<point x="-148.777" y="922.086" type="line"/>
			<point x="248.777" y="877.914" type="line"/>
			<point x="148.777" y="-22.086" type="line"/>
		</contour>
	</outline>
</glyph>
<glyph name="to91" format="2">
	<advance width="100"/>
	<outline>
		<contour>
			<point x="-149.402" y="10.923" type="line"/>
			<point x="-49.402" y="920.923" type="line"/>
			<point x="149.402" y="899.077" type="line"/>
			<point x="49.402" y="-10.923" type="line"/>
		</contour>
	</outline>
</glyph>
<glyph name="to92" format="2">
	<advance width="100"/>
	<outline>
		<contour>
			<point x="-248.829" y="21.612" type="line"/>
			<point x="-148.829" y="941.612" type="line"/>
			<point x="248.829" y="898.388" type="line"/>
			<point x="148.829" y="-21.612" type="line"/>
		</contour>
	</outline>
</glyph>
<glyph name="to93" format="2">
	<advance width="100"/>
	<outline>
		<contour>
			<point x="-250.842" y="21.596" type="line"/>
			<point x="-150.842" y="951.596" type="line"/>
			<point x="250.842" y="908.404" type="line"/>
			<point x="150.842" y="-21.596" type="line"/>
		</contour>
	</outline>
</glyph>
<glyph name="to94" format="2">
	<advance width="100"/>
	<outline>
		<contour>
			<point x="-248.878" y="21.157" type="line"/>
			<point x="-148.878" y="961.157" type="line"/>
			<point x="248.878" y="918.843" type="line"/>
			<point x="148.878" y="-21.157" type="line"/>
		</contour>
	</outline>
</glyph>
<glyph name="to95" format="2">
	<advance width="100"/>
	<outline>
		<contour>
			<point x="-149.451" y="10.468" type="line"/>
			<point x="-49.451" y="960.468" type="line"/>
			<point x="149.451" y="939.532" type="line"/>
			<point x="49.451" y="-10.468" type="line"/>
		</contour>
	</outline>
</glyph>
<glyph name="to96" format="2">
	<advance width="100"/>
	<outline>
		<contour>
			<point x="-250.913" y="20.928" type="line"/>
			<point x="-150.913" y="980.928" type="line"/>
			<point x="250.913" y="939.072" type="line"/>
			<point x="150.913" y="-20.928" type="line"/>
		</contour>
	</outline>
</glyph>
<glyph name="to98" format="2">
	<advance width="100"/>
	<outline>
		<contour>
			<point x="-250.956" y="20.506" type="line"/>
			<point x="-150.956" y="1000.506" type="line"/>
			<point x="250.956" y="959.494" type="line"/>
			<point x="150.956" y="-20.506" type="line"/>
		</contour>
	</outline>
</glyph>
<glyph name="to99" format="2">
	<advance width="100"/>
	<outline>
		<contour>
			<point x="-248.987" y="20.1" type="line"/>
			<point x="-148.987" y="1010.1" type="line"/>
			<point x="248.987" y="969.9" type="line"/>
			<point x="148.987" y="-20.1" type="line"/>
		</contour>
	</outline>
</glyph>
